<svg width="181" height="93" viewBox="0 0 181 93" fill="none" xmlns="http://www.w3.org/2000/svg">
<path fill-rule="evenodd" clip-rule="evenodd" d="M147.88 31.5299L142.211 40.4871L142.308 40.2787L142.406 40.0708L142.505 39.8624L142.604 39.6545L142.704 39.4461L142.805 39.2369L142.906 39.0284L143.008 38.8193L143.213 38.397L143.419 37.978L143.625 37.5616L143.833 37.1485L144.042 36.7392L144.253 36.3339L144.468 35.933L144.685 35.5373L144.906 35.1468L145.132 34.7614L145.363 34.3819L151.381 24.746L151.125 25.1675L150.874 25.5954L150.628 26.0297L150.387 26.4692L150.148 26.9146L149.914 27.3651L149.681 27.8201L149.451 28.279L149.222 28.7418L148.993 29.2072L148.765 29.6765L148.652 29.9085L148.54 30.1405L148.428 30.3725L148.316 30.6046L148.206 30.8359L148.097 31.0673L147.988 31.2986L147.88 31.5299ZM133.815 35.5592L133.563 35.258L133.333 34.9507L133.121 34.6373L132.928 34.3173L132.752 33.9905L132.59 33.6578L132.442 33.3185L132.304 32.9725L136.872 23.1801L137.025 23.5649L137.19 23.9418L137.37 24.3121L137.566 24.675L137.78 25.0307L138.015 25.3796L138.271 25.7211L138.551 26.0559L138.691 26.2106L138.836 26.3607L138.983 26.5056L139.135 26.6458L139.29 26.7809L139.448 26.9114L139.61 27.0366L139.774 27.1579L134.916 36.5525L134.768 36.4434L134.623 36.3304L134.48 36.2134L134.341 36.0912L134.205 35.9651L134.072 35.835L133.942 35.6997L133.816 35.5605L133.815 35.5592ZM48.2267 46.3282L52.5232 53.8057L52.0844 53.8283L51.6468 53.8379L51.2109 53.8331L50.7769 53.814L50.3447 53.7806L49.9143 53.7335L49.485 53.6715L49.0569 53.5944L48.6306 53.5031L48.2048 53.3967L47.7808 53.2754L47.3579 53.1391L46.9356 52.9873L46.5144 52.8197L46.0943 52.6372L45.6748 52.4385L45.6404 52.7088L45.5949 52.9785L45.5391 53.247L45.4735 53.5144L45.3968 53.7805L45.3103 54.0448L45.2134 54.3073L45.1067 54.5672L45.0691 54.6482L48.6466 59.8024L48.9102 60.2096L49.1454 60.6411L49.3535 61.0956L49.5371 61.5718L49.6982 62.0685L49.8386 62.5842L49.9604 63.1183L50.066 63.6701L51.9809 74.5602L47.6241 69.3884L45.4961 57.2887L45.3788 56.6758L45.2428 56.082L45.0868 55.5086L44.915 54.9782L44.9131 54.9822L44.6966 55.3804L44.4584 55.7614L44.198 56.125L43.9158 56.4686L43.6121 56.793L43.2866 57.0961L42.9401 57.3779L37.5788 50.298L37.964 49.9845L38.3256 49.6473L38.6635 49.2868L38.9771 48.9045L39.2664 48.5009L39.5314 48.0774L39.7716 47.6347L39.9868 47.174L40.1049 46.8846L40.2126 46.5935L40.3092 46.2998L40.3941 46.0043L40.4672 45.707L40.5293 45.4091L40.579 45.1094L40.617 44.8092L41.0829 45.0296L41.55 45.2324L42.0182 45.4183L42.4876 45.5873L42.9574 45.7387L43.429 45.8739L43.9024 45.9921L44.3763 46.0934L44.852 46.1791L45.3294 46.2478L45.808 46.3009L46.2884 46.3377L46.7706 46.3583L47.2546 46.3639L47.7404 46.3532L48.2279 46.3275L48.2267 46.3282ZM66.4529 48.7L66.1303 48.5666L65.8191 48.4156L65.5196 48.2475L65.2315 48.0631L64.9563 47.8629L64.6927 47.6482L64.442 47.4198L64.2048 47.1783L64.0299 47.4513L63.8505 47.7184L63.6664 47.9792L63.4783 48.2334L63.2857 48.4818L63.0891 48.7238L62.8878 48.96L62.6826 49.1897L62.4728 49.4136L62.259 49.6317L62.0407 49.8433L61.8177 50.0491L61.5907 50.2497L61.3591 50.4439L61.123 50.6329L60.8828 50.8162L57.515 43.0067L57.7822 42.8031L58.0442 42.593L58.3016 42.3764L58.5543 42.1534L58.8018 41.9239L59.0447 41.6886L59.2823 41.4463L59.5153 41.1974L59.7436 40.9421L59.9674 40.6804L60.1858 40.4115L60.3997 40.1355L60.6083 39.8531L60.8129 39.5636L61.0122 39.2676L61.2069 38.9638L61.4711 39.2318L61.7494 39.4859L62.0419 39.7243L62.3478 39.9463L62.6673 40.152L63.0002 40.3386L63.346 40.5068L63.7039 40.6555L64.0244 40.7693L64.3395 40.8657L64.6506 40.9465L64.9583 41.0124L65.2632 41.0653L65.5667 41.1045L65.8688 41.1328L66.1708 41.1499L66.4733 41.1579L66.7777 41.1575L67.0846 41.1499L67.3948 41.1357L67.7081 41.1164L68.0266 41.093L68.3502 41.0664L68.681 41.0384L69.1827 40.9898L69.6823 40.9302L70.1791 40.8589L70.6726 40.7752L71.1627 40.678L71.6475 40.5671L72.1276 40.4407L72.6029 40.2981L73.0716 40.1386L73.5336 39.9616L73.9889 39.7665L74.4369 39.5519L74.8762 39.3166L75.3068 39.0613L75.7288 38.7832L76.1408 38.4832L76.397 38.2803L76.6453 38.071L76.8845 37.8552L77.1151 37.6337L77.3379 37.4065L77.5522 37.1734L77.7586 36.9353L77.9572 36.692L78.1479 36.4429L78.3314 36.1893L78.507 35.9307L78.6755 35.6675L78.8367 35.3999L78.9914 35.1277L79.1389 34.8518L79.2798 34.5713L79.3494 34.7606L79.4248 34.9504L79.5067 35.1408L79.5951 35.3325L79.6907 35.5253L79.7934 35.7201L79.904 35.9167L80.0224 36.1152L80.2127 36.4086L80.4158 36.6902L80.6312 36.9599L80.8582 37.2172L81.0961 37.462L81.3449 37.6943L81.604 37.9142L81.8721 38.1216L82.1492 38.3159L82.4353 38.4972L82.7283 38.6659L83.0291 38.8217L83.3369 38.9643L83.651 39.0932L83.9702 39.2084L84.2945 39.3105L84.9843 47.4894L84.6919 47.3974L84.4047 47.2936L84.1226 47.1774L83.8455 47.0494L83.5748 46.9096L83.3112 46.7581L83.0539 46.5948L82.8044 46.4197L82.5632 46.2329L82.3303 46.0349L82.1064 45.8257L81.8921 45.6054L81.6875 45.3739L81.4939 45.1313L81.3112 44.8781L81.1401 44.6138L81.0336 44.4347L80.9336 44.2575L80.8414 44.0821L80.7552 43.9087L80.676 43.7364L80.6028 43.5648L80.5347 43.3938L80.4725 43.2233L80.3463 43.4757L80.2141 43.7241L80.0747 43.9688L79.9295 44.2103L79.7777 44.4472L79.62 44.6797L79.4545 44.9077L79.2824 45.1319L79.1038 45.3509L78.9179 45.5655L78.7249 45.7755L78.5246 45.9798L78.3172 46.179L78.1019 46.373L77.8787 46.5612L77.6483 46.7444L77.2776 47.0141L76.8983 47.2644L76.5104 47.494L76.115 47.7054L75.7124 47.8987L75.3024 48.0745L74.8864 48.2334L74.4644 48.3769L74.0371 48.5047L73.605 48.6189L73.1682 48.7189L72.7275 48.8066L72.284 48.8819L71.8365 48.9462L71.3875 48.9994L70.9359 49.043L70.6383 49.0687L70.3471 49.0924L70.0605 49.1135L69.7784 49.1306L69.4994 49.1432L69.2237 49.1505L68.9499 49.1506L68.6773 49.1435L68.4052 49.128L68.1331 49.1028L67.8602 49.0671L67.5859 49.0198L67.3089 48.9601L67.0291 48.8875L66.7453 48.8005L66.4568 48.698L66.4529 48.7ZM94.2977 45.1226L94.1752 44.9664L94.0585 44.8102L93.9477 44.6526L93.8433 44.4943L93.7448 44.3359L93.6522 44.1762L93.5647 44.0157L93.4831 43.8546L93.2464 44.3161L92.9763 44.7527L92.6733 45.1635L92.3409 45.5474L91.9802 45.9041L91.5939 46.2319L91.1845 46.5313L90.754 46.801L90.7054 38.5454L91.1838 38.246L91.6384 37.9136L92.0673 37.549L92.4679 37.1528L92.8377 36.7263L93.1739 36.2703L93.4748 35.7853L93.7377 35.2727L93.8286 35.4513L93.926 35.6292L94.0292 35.8064L94.1389 35.9829L94.2552 36.1587L94.3779 36.3337L94.5078 36.508L94.6441 36.6816L94.9547 37.0428L95.2755 37.3739L95.6063 37.675L95.9473 37.9487L96.2984 38.1956L96.659 38.4177L97.0297 38.6163L97.4107 38.7933L97.8019 38.9495L98.2026 39.0866L98.6136 39.2061L99.0342 39.3099L99.4643 39.3986L99.9041 39.4742L100.354 39.538L100.813 39.592L106.314 40.1706L104.802 48.2635L99.852 47.7425L99.4385 47.6939L99.034 47.6368L98.6378 47.5686L98.2507 47.4892L97.8725 47.396L97.5026 47.2885L97.1423 47.1653L96.7903 47.025L96.4479 46.8658L96.1144 46.687L95.7891 46.4873L95.4734 46.2648L95.1672 46.0187L94.8699 45.7478L94.5813 45.4502L94.3017 45.1245L94.2977 45.1226ZM100.849 55.5222L99.8831 62.0805L99.883 61.8073L99.8906 61.5321L99.9074 61.2555L99.9319 60.9769L99.9649 60.6968L100.939 53.985L100.903 54.2963L100.875 54.6061L100.857 54.9133L100.848 55.2191L100.848 55.5222L100.849 55.5222ZM118.401 46.3373L118.343 46.2409L118.286 46.1446L118.231 46.0482L118.177 45.9518L118.123 45.8555L118.071 45.7591L118.02 45.6626L117.97 45.5662L117.829 45.8181L117.678 46.0628L117.518 46.3012L117.347 46.5318L117.167 46.7548L116.977 46.9694L116.777 47.1756L116.569 47.3728L116.351 47.5597L116.125 47.7369L115.89 47.9032L115.646 48.0585L115.394 48.2028L115.133 48.3348L114.865 48.4539L114.589 48.5608L114.33 48.6479L114.075 48.7233L113.825 48.7869L113.577 48.8401L113.332 48.8836L113.089 48.9172L112.847 48.9417L112.606 48.9584L114.986 40.9427L115.253 40.9238L115.522 40.8964L115.791 40.8592L116.063 40.811L116.339 40.7517L116.617 40.6806L116.9 40.5971L117.188 40.4999L117.495 40.3811L117.792 40.2487L118.082 40.1021L118.361 39.9425L118.632 39.7694L118.893 39.5847L119.144 39.3877L119.386 39.1797L119.617 38.9608L119.839 38.7316L120.05 38.4934L120.25 38.2455L120.44 37.9893L120.619 37.7248L120.786 37.4525L120.942 37.1732L120.998 37.2806L121.055 37.3874L121.113 37.4941L121.172 37.6015L121.233 37.7089L121.294 37.8162L121.357 37.9236L121.421 38.0309L121.628 38.3651L121.84 38.6908L122.057 39.0087L122.28 39.318L122.507 39.6195L122.74 39.9131L122.979 40.1989L123.221 40.4768L123.47 40.7469L123.724 41.0091L123.982 41.2634L124.247 41.5106L124.516 41.7498L124.791 41.9819L125.071 42.2061L125.356 42.4231L121.94 50.2911L121.683 50.0959L121.431 49.8942L121.184 49.6853L120.942 49.4698L120.704 49.2478L120.471 49.0185L120.243 48.7828L120.019 48.5398L119.8 48.2896L119.586 48.0328L119.377 47.7689L119.172 47.4978L118.971 47.2194L118.776 46.9339L118.585 46.6411L118.398 46.3405L118.401 46.3373ZM119.639 28.1353L116.794 37.4318L116.835 37.1342L116.879 36.8358L116.927 36.5368L116.979 36.2371L117.034 35.9373L117.092 35.6369L117.152 35.3358L117.214 35.0334L117.07 35.2644L116.917 35.489L116.755 35.7072L116.584 35.9177L116.405 36.1212L116.217 36.3169L116.021 36.5042L115.817 36.6832L118.554 27.3032L118.78 27.1038L118.998 26.8955L119.207 26.6781L119.406 26.4524L119.541 26.2845L119.962 24.8792L119.717 25.2479L119.446 25.6018L119.152 25.9358L118.835 26.2486L118.497 26.5382L118.137 26.8032L117.757 27.0418L117.357 27.252L116.938 27.4318L119.799 17.0242L120.265 16.8238L120.709 16.5904L121.131 16.3253L121.531 16.0306L121.907 15.7088L122.259 15.3612L122.585 14.9898L122.887 14.5965L123.161 14.184L123.408 13.7535L123.628 13.3071L123.818 12.846L123.98 12.3728L120.701 23.2458L120.555 23.6713L120.384 24.086L120.186 24.488L120.066 24.6987L119.621 26.1835L119.776 25.9751L119.946 25.7256L120.106 25.4691L120.036 25.8047L119.969 26.1397L119.906 26.474L119.845 26.807L119.787 27.14L119.733 27.4722L119.684 27.8038L119.639 28.1347L119.639 28.1353ZM140.621 52.6233L140.503 52.2654L140.397 51.9101L140.304 51.5565L140.222 51.2048L140.152 50.8555L140.092 50.5081L140.044 50.1632L140.007 49.8202L139.841 49.9831L139.673 50.1429L139.501 50.2994L139.326 50.4527L139.149 50.6021L138.968 50.749L138.785 50.8919L138.599 51.0317L138.41 51.1669L138.22 51.2995L138.027 51.429L137.832 51.5538L137.634 51.6755L137.436 51.7932L137.235 51.9071L137.033 52.0171L136.73 52.173L136.428 52.3184L136.127 52.4528L135.826 52.5768L135.525 52.6904L135.225 52.7942L134.926 52.8882L134.626 52.9725L134.327 53.0471L134.027 53.1132L133.728 53.1701L133.428 53.2187L133.128 53.2581L132.827 53.2897L132.527 53.3128L132.234 53.3281L127.569 62.6649L123.932 68.509L128.449 59.467L128.579 59.2075L128.707 58.9564L128.834 58.7132L128.962 58.4771L129.092 58.2482L129.225 58.0257L132.055 53.3319L131.924 53.3358L131.621 53.3362L131.317 53.3295L131.013 53.3162L130.708 53.2965L130.401 53.2703L130.094 53.2376L129.785 53.1997L129.474 53.156L129.163 53.1064L128.85 53.0516L128.534 52.9923L128.217 52.9278L127.899 52.8588L127.579 52.7853L127.256 52.7072L127.061 52.6577L126.866 52.6063L126.674 52.553L126.482 52.4983L126.293 52.4416L126.105 52.3824L125.919 52.3218L125.734 52.2592L125.55 52.1947L125.369 52.1282L125.189 52.0598L125.01 51.9894L124.833 51.917L124.658 51.842L124.484 51.7657L124.311 51.6874L127.991 43.9748L128.182 44.0614L128.375 44.146L128.57 44.2286L128.767 44.3092L128.965 44.3872L129.166 44.4633L129.368 44.5374L129.571 44.6095L129.776 44.679L129.984 44.7465L130.192 44.8121L130.403 44.875L130.616 44.936L130.83 44.995L131.046 45.0521L131.263 45.1071L131.621 45.194L131.977 45.2756L132.331 45.3527L132.683 45.4247L133.034 45.4908L133.382 45.5517L133.728 45.6068L134.074 45.6554L134.417 45.6981L134.759 45.7344L135.099 45.7635L135.439 45.7855L135.777 45.8004L136.114 45.8074L136.451 45.8066L136.786 45.7974L137.121 45.7805L137.456 45.7543L137.79 45.7191L138.123 45.6755L138.457 45.6221L138.79 45.5589L139.123 45.486L139.455 45.4027L139.789 45.3089L140.122 45.2048L140.455 45.0896L140.789 44.9633L141.123 44.8254L141.458 44.6757L141.794 44.5143L142.13 44.3411L142.355 44.2186L142.578 44.0921L142.799 43.9611L143.018 43.8262L143.234 43.6875L143.449 43.5442L143.661 43.3971L143.87 43.246L144.077 43.0911L144.28 42.9317L144.481 42.769L144.679 42.6025L144.873 42.4321L145.064 42.2578L145.251 42.0803L145.435 41.899L145.477 42.281L145.53 42.6642L145.596 43.0499L145.674 43.4381L145.765 43.8288L145.869 44.2213L145.986 44.6169L146.117 45.0149L146.405 45.7913L146.725 46.5367L147.075 47.2507L147.455 47.9344L147.865 48.5886L148.305 49.2138L148.775 49.8108L149.275 50.3808L149.804 50.9238L150.362 51.4406L150.951 51.9323L151.569 52.3983L152.216 52.8413L152.891 53.2606L153.596 53.6575L154.33 54.032L154.388 54.0601L154.446 54.0881L154.504 54.1161L154.563 54.1442L154.621 54.1716L154.679 54.199L154.737 54.2257L154.795 54.2524L148.436 60.9374L148.383 60.9132L148.331 60.889L148.279 60.8648L148.226 60.8399L148.174 60.8151L148.122 60.7902L148.07 60.7647L148.017 60.7392L147.357 60.4017L146.723 60.0445L146.115 59.6674L145.532 59.2687L144.976 58.8488L144.447 58.4059L143.943 57.9407L143.467 57.4524L143.017 56.9398L142.594 56.4022L142.198 55.8396L141.829 55.2507L141.487 54.6356L141.172 53.9928L140.885 53.3218L140.625 52.6233L140.621 52.6233ZM142.611 36.8582L142.298 37.0357L141.979 37.1956L141.652 37.3387L141.32 37.4637L140.982 37.5711L140.64 37.661L140.294 37.7334L139.945 37.7883L145.362 28.5312L145.75 28.4701L146.134 28.3895L146.514 28.2894L146.89 28.1699L147.259 28.0309L147.622 27.8725L147.977 27.6946L148.324 27.4973L148.674 27.2733L149.005 27.0365L149.318 26.7869L149.613 26.5244L149.891 26.2491L150.151 25.9616L150.395 25.6626L150.622 25.3514L150.833 25.0286L144.869 34.6359L144.679 34.926L144.475 35.2064L144.256 35.4759L144.021 35.7345L143.771 35.9816L143.506 36.2184L143.224 36.443L142.925 36.6561L142.611 36.8576L142.611 36.8582ZM64.6512 32.4589L64.7266 32.7222L64.8015 32.9849L64.8756 33.2463L64.9491 33.5077L65.022 33.7685L65.0935 34.0286L65.1644 34.288L65.2333 34.5469L65.3009 34.8051L65.3673 35.0633L65.4323 35.3209L65.4947 35.5778L65.5551 35.8341L65.6143 36.0905L65.6708 36.3455L65.7247 36.6006L62.8953 27.2118L62.8353 26.9281L62.7726 26.6445L62.7073 26.3602L62.6401 26.0754L62.5709 25.7899L62.4991 25.5037L62.426 25.2176L62.3503 24.9309L62.2739 24.6435L62.1956 24.3555L62.1159 24.0668L62.035 23.7769L61.9534 23.4863L61.8705 23.1957L61.7876 22.9039L61.7034 22.6114L61.5592 22.11L61.4144 21.6119L61.2683 21.1171L64.2612 31.1157L64.3924 31.5613L64.5225 32.0101L64.6525 32.4615L64.6512 32.4589ZM35.227 36.0273L33.6004 42.1141L27.201 33.3378L29.0088 26.5747L29.1228 26.1326L29.2251 25.699L29.3145 25.2734L29.3903 24.8544L29.45 24.4408L29.4927 24.0319L29.5173 23.6257L29.5224 23.2224L29.5066 22.82L29.4682 22.4171L29.4062 22.0138L29.3196 21.6081L29.2062 21.1988L29.0662 20.7852L28.8968 20.3667L28.6974 19.9414L28.4979 19.5707L28.2804 19.2164L34.5716 29.4052L34.768 29.7239L34.9476 30.0578L35.127 30.4404L35.2797 30.8174L35.4057 31.1895L35.5076 31.558L35.5854 31.9227L35.6411 32.2858L35.6752 32.6477L35.6893 33.0099L35.6851 33.3729L35.6634 33.7386L35.6247 34.1065L35.5706 34.4791L35.5028 34.8564L35.4227 35.239L35.3303 35.6289L35.2276 36.0267L35.227 36.0273ZM21.6947 64.0175L21.441 63.8203L13.6906 57.4556L13.9718 57.6746L14.4178 57.9817L14.881 58.251L15.3601 58.4823L15.8525 58.6764L16.3568 58.8333L16.8699 58.9538L17.3898 59.0377L17.9152 59.0858L18.4428 59.0987L18.9714 59.0765L19.4984 59.0199L20.0211 58.9288L20.5382 58.8033L21.0472 58.6448L21.5461 58.4531L22.033 58.2291L22.506 57.9726L22.9597 57.6871L23.3924 57.3745L23.8027 57.0354L24.1893 56.6712L24.5504 56.2839L24.8839 55.8746L25.1892 55.4449L25.4644 54.996L25.7082 54.5298L25.918 54.047L26.0933 53.549L26.2326 53.0376L26.3334 52.515L26.395 51.9816L26.4156 51.439L26.4117 51.171L26.4 50.9116L26.3812 50.6594L26.3547 50.4138L26.3217 50.1748L26.2817 49.941L26.2352 49.7119L26.1822 49.4874L28.8247 50.6338L29.1447 50.7704L29.4615 50.9012L29.7756 51.025L30.087 51.1422L30.3971 51.2516L30.7051 51.3526L31.0117 51.4445L31.3169 51.5273L31.6214 51.5997L31.9251 51.6618L32.2288 51.7127L32.5329 51.752L32.8369 51.7782L33.1421 51.7914L33.4478 51.7916L33.7547 51.7769L39.4989 58.7092L39.2226 58.7224L38.9468 58.7225L38.6722 58.7109L38.3982 58.687L38.1246 58.652L37.8516 58.6066L37.5779 58.5508L37.3041 58.4859L37.0295 58.4112L36.7535 58.3288L36.4768 58.2379L36.1981 58.1392L35.9174 58.0333L35.6346 57.9217L35.3492 57.8036L35.0611 57.6802L32.6832 56.6489L32.7308 56.8508L32.7725 57.0572L32.8084 57.2676L32.8385 57.4832L32.8622 57.7041L32.8794 57.9309L32.8902 58.165L32.8939 58.4063L32.8754 58.8949L32.8197 59.3749L32.7288 59.8461L32.6039 60.3059L32.4458 60.7536L32.2563 61.1881L32.0374 61.6078L31.7897 62.0116L31.5151 62.3988L31.2144 62.7667L30.8894 63.1153L30.5414 63.4427L30.1724 63.7482L29.783 64.0298L29.3752 64.2869L28.9495 64.5175L28.5111 64.7189L28.0621 64.8919L27.6037 65.0344L27.1378 65.147L26.6664 65.2291L26.1927 65.2806L25.7174 65.3003L25.2425 65.2888L24.7698 65.2454L24.3014 65.1701L23.8398 65.0615L23.3864 64.9203L22.943 64.7452L22.5116 64.5368L22.0948 64.2945L21.6934 64.0181L21.6947 64.0175ZM43.9771 91.8871L43.5369 91.9058L43.1003 91.89L42.6685 91.8403L42.2436 91.7581L41.8269 91.6445L41.4196 91.5016L41.023 91.3299L40.6386 91.1308L35.0213 87.8006L35.4483 88.0214L35.8892 88.2122L36.3422 88.3709L36.8053 88.497L37.2771 88.5886L37.7564 88.6436L38.2412 88.6616L38.7301 88.6404L39.0277 88.6101L39.3148 88.5689L39.5927 88.5186L39.8613 88.4581L40.1228 88.3885L40.3783 88.3105L40.6285 88.2241L40.8747 88.1293L41.1176 88.0267L41.3591 87.9163L41.5992 87.7988L41.84 87.6747L42.0819 87.5442L42.3264 87.4077L42.5741 87.2654L42.827 87.1179L43.279 86.8519L43.7638 86.5517L44.2251 86.2349L44.6621 85.9034L45.0762 85.5565L45.4675 85.1955L45.8345 84.8211L46.1792 84.4326L46.5018 84.0313L46.8007 83.6179L47.0775 83.193L47.3327 82.7566L47.5656 82.3094L47.7764 81.852L47.9662 81.385L48.1344 80.9085L48.2812 80.4231L52.5724 84.4911L52.4401 84.9276L52.3731 85.1175L52.4227 85.1398L52.8797 85.3024L53.3473 85.433L53.8225 85.531L54.3045 85.5978L54.7913 85.632L55.2805 85.6349L55.7706 85.6053L56.2598 85.5438L56.7454 85.4505L57.2261 85.3254L57.6981 85.1698L58.1574 84.9844L58.6015 84.7705L59.029 84.5295L59.4387 84.262L59.8287 83.9686L60.1976 83.6521L60.5441 83.311L60.8657 82.9481L61.1611 82.564L61.4289 82.1594L61.6673 81.7355L61.875 81.2931L62.0499 80.8335L62.1908 80.3572L62.2959 79.8657L62.3338 79.6247L62.3633 79.3876L62.385 79.1539L62.399 78.9229L62.4052 78.6945L62.4042 78.4682L62.3961 78.2438L62.3809 78.0202L67.5633 76.4927L67.6719 76.6887L67.7864 76.882L67.908 77.0727L68.0373 77.2613L68.1739 77.448L68.3188 77.6332L68.4728 77.8164L68.6353 77.9982L68.9901 78.353L69.3666 78.6758L69.7624 78.9665L70.1767 79.2252L70.607 79.4518L71.0512 79.6464L71.5081 79.809L71.9752 79.9396L72.4503 80.0383L72.9323 80.1044L73.4192 80.1392L73.9083 80.1415L74.3985 80.1119L74.887 80.0511L75.3732 79.9578L75.854 79.8326L76.3259 79.6764L76.7853 79.491L77.2293 79.2771L77.6575 79.0361L78.0672 78.7685L78.4572 78.4759L78.8261 78.1587L79.1726 77.8183L79.4942 77.4554L79.7896 77.0713L80.0568 76.6666L80.2952 76.2428L80.5028 75.8004L80.6777 75.3407L80.8187 74.8645L80.9237 74.373L80.936 74.2981L80.9482 74.2238L80.9592 74.1502L80.9695 74.0766L80.9792 74.0037L80.9876 73.9307L80.9953 73.8578L81.0024 73.7855L81.0173 73.7847L81.0317 73.7846L81.0466 73.7844L81.0609 73.7836L81.0759 73.7835L81.0902 73.7827L81.1045 73.7826L81.1188 73.7818L81.438 73.7636L81.7551 73.7318L82.0694 73.6858L82.381 73.6261L82.6886 73.5528L82.9928 73.4658L83.2917 73.3659L83.5852 73.2524L83.8734 73.1253L84.1556 72.9846L84.4311 72.8316L84.6994 72.665L84.9597 72.4855L85.2121 72.2931L85.4559 72.0877L85.6912 71.8694L85.9687 71.5843L86.2214 71.2956L86.452 71.0019L86.6624 70.7032L86.8545 70.3982L87.0309 70.0855L87.1935 69.7652L87.3438 69.4365L91.0526 69.3059L91.2255 69.6235L91.41 69.9319L91.6082 70.2311L91.8218 70.5223L92.0523 70.8056L92.3029 71.0821L92.5755 71.3526L92.8721 71.6169L93.1206 71.8168L93.3775 72.0035L93.6426 72.1771L93.9155 72.3376L94.1953 72.4851L94.4816 72.6188L94.7735 72.7389L95.0705 72.8452L95.3726 72.9384L95.6785 73.018L95.9881 73.0838L96.3008 73.1354L96.6153 73.1732L96.9317 73.1967L97.2492 73.2065L97.5672 73.2027L97.9332 73.1802L98.2977 73.1395L98.6594 73.0813L99.0177 73.0048L99.3725 72.9109L99.722 72.8001L100.065 72.6724L100.402 72.5286L100.732 72.3685L101.055 72.1929L101.367 72.0018L101.671 71.7965L101.964 71.5764L102.246 71.342L102.516 71.0934L102.772 70.832L103.195 70.3438L103.557 69.8518L103.796 69.4617L103.608 69.3231L103.311 69.0873L103.025 68.8424L102.749 68.5875L102.484 68.3229L103.739 62.459L104.033 62.7526L104.34 63.0358L104.658 63.3077L104.988 63.5692L105.328 63.8188L105.678 64.0566L106.039 64.2826L106.41 64.4968L106.791 64.6979L107.181 64.8866L107.58 65.0621L107.988 65.2239L108.404 65.372L108.828 65.5063L109.26 65.6262L109.7 65.7311L109.934 65.7821L110.17 65.8311L110.405 65.8789L110.641 65.9253L110.877 65.9698L111.113 66.0129L111.35 66.0542L111.586 66.0941L111.464 66.6469L111.396 66.9617L111.331 67.2681L111.271 67.5672L111.217 67.8605L111.169 68.1484L111.128 68.4331L111.095 68.7157L111.071 68.9976L111.057 69.28L111.054 69.5643L111.06 69.8517L111.08 70.1436L111.111 70.4405L111.156 70.7451L111.216 71.058L111.291 71.3806L111.436 71.8741L111.616 72.3497L111.83 72.8068L112.076 73.244L112.352 73.6608L112.656 74.0559L112.986 74.4279L113.342 74.7769L113.722 75.1009L114.122 75.4L114.543 75.6723L114.982 75.9177L115.437 76.1343L115.906 76.3215L116.389 76.4786L116.883 76.6044L117.312 76.686L117.743 76.7435L118.176 76.7769L118.608 76.7862L119.04 76.7715L119.469 76.7328L119.894 76.6707L120.314 76.5845L120.728 76.4743L121.135 76.3409L121.533 76.184L121.92 76.0039L122.296 75.8005L122.66 75.5737L123.01 75.3237L123.345 75.0511L123.36 75.1088L123.376 75.1666L123.392 75.225L123.409 75.2833L123.427 75.3417L123.445 75.4L123.464 75.4584L123.483 75.5167L123.609 75.8667L123.751 76.2074L123.909 76.5376L124.082 76.8572L124.27 77.1662L124.472 77.4647L124.688 77.7514L124.918 78.0268L125.162 78.2904L125.418 78.5422L125.688 78.7814L125.97 79.0082L126.264 79.2219L126.571 79.4224L126.888 79.6098L127.216 79.7835L127.804 80.0495L128.385 80.259L128.959 80.4139L129.527 80.5175L130.09 80.5724L130.647 80.5812L131.201 80.5464L131.749 80.47L132.294 80.356L132.836 80.2055L133.374 80.0226L133.91 79.8091L134.444 79.5677L134.976 79.3015L135.507 79.0126L136.037 78.7042L136.02 78.8332L136.005 78.9641L135.993 79.0969L135.983 79.2316L135.974 79.3683L135.968 79.5076L135.965 79.6494L135.963 79.7938L135.984 80.3081L136.042 80.8129L136.138 81.3082L136.269 81.7922L136.435 82.2634L136.634 82.7206L136.864 83.1626L137.124 83.588L137.412 83.9949L137.728 84.3826L138.07 84.7493L138.435 85.0943L138.824 85.415L139.233 85.7114L139.662 85.9816L140.11 86.2243L140.572 86.4363L141.044 86.617L141.527 86.7663L142.018 86.8837L142.513 86.9686L143.012 87.0215L143.513 87.0412L144.012 87.0271L144.509 86.9799L145.001 86.8988L145.487 86.7834L145.964 86.6336L146.43 86.4488L146.884 86.229L147.322 85.9735L141.709 89.486L141.313 89.7156L140.906 89.9135L140.486 90.0797L140.057 90.214L139.62 90.3179L139.177 90.3913L138.729 90.4335L138.28 90.4457L137.83 90.4281L137.38 90.3806L136.935 90.3044L136.493 90.1988L136.059 90.0646L135.633 89.9024L135.217 89.7114L134.814 89.4929L134.427 89.2503L134.058 88.9834L133.709 88.6948L133.38 88.3846L133.072 88.0546L132.788 87.7056L132.528 87.3394L132.294 86.9566L132.087 86.5587L131.908 86.1474L131.759 85.7229L131.641 85.287L131.554 84.8416L131.502 84.3869L131.484 83.9239L131.485 83.7938L131.489 83.6656L131.494 83.54L131.501 83.417L131.511 83.2953L131.522 83.1762L131.535 83.0583L131.55 82.9424L131.072 83.2203L130.594 83.4801L130.115 83.7197L129.635 83.9365L129.153 84.1286L128.668 84.2928L128.181 84.4278L127.69 84.5309L127.197 84.5996L126.699 84.6305L126.197 84.6225L125.691 84.5729L125.179 84.4792L124.662 84.3393L124.14 84.1507L123.611 83.9114L123.315 83.755L123.029 83.5861L122.753 83.4054L122.489 83.2129L122.235 83.0086L121.992 82.7932L121.761 82.5665L121.542 82.3293L121.334 82.081L121.14 81.8227L120.958 81.5546L120.789 81.2766L120.633 80.9887L120.491 80.6916L120.363 80.3852L120.25 80.0702L120.232 80.0177L120.215 79.9652L120.199 79.9127L120.183 79.8601L120.168 79.8076L120.153 79.7557L120.138 79.7038L120.124 79.6513L119.823 79.8969L119.508 80.1218L119.181 80.3254L118.843 80.5083L118.494 80.6705L118.136 80.8113L117.77 80.9314L117.398 81.0301L117.019 81.1074L116.638 81.1639L116.252 81.1989L115.863 81.2126L115.474 81.2041L115.084 81.1741L114.696 81.1221L114.31 81.0485L113.866 80.9352L113.432 80.7939L113.009 80.6251L112.599 80.4301L112.204 80.2096L111.825 79.965L111.465 79.696L111.123 79.4041L110.803 79.0899L110.505 78.7553L110.23 78.3996L109.982 78.0249L109.761 77.6309L109.569 77.2198L109.407 76.7915L109.277 76.3473L109.209 76.0572L109.156 75.7754L109.115 75.5013L109.086 75.2336L109.069 74.971L109.063 74.7122L109.066 74.4566L109.079 74.2021L109.1 73.9482L109.13 73.6936L109.166 73.4376L109.209 73.1783L109.258 72.9144L109.312 72.6452L109.37 72.3702L109.432 72.0866L109.541 71.5892L109.328 71.553L109.115 71.5161L108.903 71.4779L108.691 71.4377L108.479 71.3963L108.267 71.3535L108.055 71.3088L107.844 71.2627L107.449 71.1685L107.06 71.0605L106.678 70.9394L106.303 70.8059L105.936 70.6606L105.577 70.5029L105.226 70.3333L104.884 70.152L104.549 69.9596L104.224 69.756L104.01 69.6111L103.127 73.159L102.993 73.6182L102.815 74.0734L102.589 74.5244L102.314 74.9714L101.988 75.4144L101.608 75.8533L101.377 76.0891L101.134 76.3127L100.881 76.524L100.617 76.7218L100.344 76.9073L100.062 77.0792L99.7721 77.2369L99.475 77.381L99.1719 77.5102L98.8628 77.6252L98.5483 77.7252L98.2291 77.8097L97.9072 77.8786L97.5812 77.9313L97.2538 77.9677L96.9242 77.9879L96.638 77.9914L96.3524 77.9826L96.0679 77.9614L95.7847 77.9271L95.5038 77.8805L95.2255 77.8214L94.9503 77.75L94.6783 77.6663L94.4113 77.5707L94.1481 77.4621L93.8906 77.3417L93.6388 77.2096L93.3935 77.065L93.1545 76.9087L92.9232 76.74L92.6996 76.5601L92.4325 76.3221L92.1868 76.0787L91.9613 75.8298L91.7538 75.575L91.5619 75.3128L91.3836 75.044L91.2176 74.7666L91.0619 74.4807L87.7244 74.5985L87.5888 74.8945L87.4427 75.1828L87.2842 75.4641L87.1113 75.739L86.9221 76.0082L86.7147 76.2724L86.487 76.5323L86.2372 76.7891L86.0258 76.985L85.8058 77.17L85.5786 77.3427L85.3441 77.5044L85.1023 77.6544L84.8539 77.7922L84.6002 77.9183L84.3412 78.0328L84.0768 78.1349L83.8078 78.2248L83.5341 78.303L83.257 78.3695L82.9766 78.423L82.6934 78.4642L82.4081 78.4931L82.1208 78.5096L82.1078 78.5104L82.0948 78.5105L82.0818 78.5113L82.0688 78.5114L82.0558 78.5122L82.0428 78.5123L82.0298 78.5124L82.0167 78.5126L82.0109 78.5777L82.0037 78.6434L81.9959 78.7092L81.9868 78.775L81.9778 78.8414L81.968 78.9079L81.957 78.975L81.9459 79.0421L81.8515 79.484L81.7244 79.9126L81.5672 80.3259L81.3806 80.7239L81.1658 81.1059L80.9249 81.47L80.659 81.8154L80.3696 82.1422L80.0579 82.4491L79.7257 82.7347L79.3745 82.9984L79.0062 83.2394L78.6213 83.4566L78.2213 83.6486L77.8079 83.8153L77.3833 83.9555L76.9506 84.0684L76.5137 84.1521L76.0739 84.2073L75.6331 84.2338L75.1928 84.2317L74.7547 84.2003L74.3209 84.1408L73.8933 84.0521L73.4726 83.9347L73.0614 83.7885L72.6616 83.613L72.2738 83.4087L71.9008 83.1757L71.5443 82.9138L71.2051 82.6232L70.8858 82.3038L70.7392 82.14L70.6009 81.9749L70.4705 81.8084L70.3478 81.6405L70.2316 81.4706L70.122 81.2987L70.0188 81.1254L69.9207 80.9494L65.2565 82.3242L65.2702 82.525L65.278 82.7272L65.2788 82.9308L65.2737 83.1364L65.2614 83.3446L65.2421 83.5549L65.2156 83.7685L65.1813 83.9855L65.0869 84.4274L64.9598 84.856L64.8026 85.27L64.6153 85.668L64.4012 86.0493L64.1603 86.4134L63.8945 86.7594L63.605 87.0862L63.2939 87.3925L62.9618 87.6781L62.6106 87.9417L62.2416 88.1822L61.8567 88.3994L61.4573 88.5913L61.044 88.7581L60.6193 88.8982L60.1866 89.0112L59.7491 89.0949L59.3093 89.15L58.8679 89.1759L58.4275 89.1738L57.9895 89.143L57.5557 89.0829L57.1274 88.9942L56.7067 88.8768L56.2955 88.7306L55.8957 88.5551L55.5086 88.3508L55.1355 88.1178L54.7791 87.8559L54.4399 87.5647L52.2113 85.5308L52.1142 85.7705L51.9245 86.1822L51.7145 86.585L51.4849 86.9775L51.2357 87.3605L50.9662 87.7327L50.6765 88.0939L50.3665 88.4437L50.0355 88.7807L49.6836 89.1055L49.3114 89.4175L48.9183 89.7161L48.5029 90.0006L48.0665 90.271L47.6591 90.5105L47.4315 90.6435L47.2084 90.7713L46.9884 90.8944L46.7704 91.0117L46.5536 91.1232L46.3374 91.2294L46.1199 91.3285L45.9016 91.4211L45.6794 91.5066L45.4544 91.5849L45.2242 91.6548L44.9887 91.7177L44.7467 91.7721L44.4967 91.8176L44.2382 91.8546L43.9705 91.882L43.9771 91.8871ZM158.962 61.5479L158.658 61.6498L158.354 61.7438L158.052 61.8314L157.751 61.9112L157.451 61.9844L157.152 62.0505L156.854 62.1094L156.556 62.1618L156.259 62.207L155.963 62.2451L155.668 62.2767L155.374 62.3011L155.081 62.319L154.787 62.3303L154.495 62.3346L154.203 62.3323L153.912 62.3235L153.62 62.3082L153.33 62.2857L153.04 62.2567L152.75 62.2212L152.461 62.1799L152.173 62.1314L151.884 62.077L151.595 62.0161L151.308 61.9488L151.02 61.8755L150.732 61.7958L150.445 61.7102L150.158 61.6175L149.87 61.5195L149.583 61.415L156.071 54.7835L156.39 54.8993L156.709 55.0087L157.028 55.1115L157.347 55.2072L157.667 55.2957L157.986 55.3771L158.306 55.452L158.627 55.5197L158.947 55.5802L159.268 55.6336L159.59 55.6798L159.911 55.7189L160.234 55.7508L160.556 55.7755L160.88 55.7925L161.204 55.8023L161.529 55.8049L161.854 55.8003L162.179 55.788L162.506 55.7685L162.833 55.7411L163.161 55.706L163.49 55.6637L163.82 55.6136L164.151 55.5556L164.482 55.4899L164.815 55.4163L165.148 55.3349L165.483 55.2457L165.818 55.1487L166.155 55.0439L166.492 54.9313L167.014 54.74L167.517 54.534L168.001 54.3133L168.468 54.0783L168.917 53.8299L169.351 53.5681L169.768 53.2933L170.17 53.0057L170.558 52.7059L170.932 52.3945L162.958 59.2653L162.621 59.5457L162.273 59.8152L161.911 60.0738L161.536 60.3215L161.146 60.5569L160.742 60.7808L160.322 60.9925L159.886 61.1913L159.434 61.3766L158.965 61.5485L158.962 61.5479Z" fill="#0B2A59"/>
<path fill-rule="evenodd" clip-rule="evenodd" d="M147.88 31.5298C148.166 30.9129 148.463 30.296 148.765 29.6763C151.205 24.6599 153.532 20.079 159.196 18.1226C163.424 16.6625 167.37 17.0784 171.36 19.0205C175.351 20.9626 178.115 23.8106 179.574 28.0382C181.497 33.607 179.336 38.4113 176.92 43.3761C174.479 48.3926 172.154 52.9734 166.49 54.9299C162.878 56.1776 159.472 56.0555 156.067 54.7821C157.794 55.6774 159.073 57.1392 159.691 58.9933C160.444 61.2487 159.881 63.2947 158.857 65.3434L150.588 81.8944C149.807 83.4568 149.187 84.6025 147.746 85.6849C145.547 87.3349 142.539 87.4397 140.113 86.2281C137.677 85.0107 135.965 82.56 135.965 79.7976C135.965 79.4086 135.99 79.0487 136.038 78.7073C133.212 80.402 130.371 81.3611 127.217 79.7853C125.436 78.895 124.115 77.4109 123.483 75.5173C123.431 75.3604 123.385 75.2054 123.345 75.051C121.601 76.5663 119.162 77.1065 116.883 76.6043C114.222 76.0181 111.966 74.0594 111.291 71.3811C110.851 69.6332 111.09 68.3527 111.465 66.6474L111.587 66.0946C110.956 65.9903 110.328 65.8697 109.701 65.7316C107.34 65.2114 105.279 64.052 103.741 62.4588C104.954 65.4739 105.188 68.2392 102.774 70.8312C101.439 72.2631 99.5249 73.1323 97.569 73.2019C95.8713 73.2618 94.1747 72.718 92.8733 71.6162C92.0481 70.9174 91.502 70.1644 91.0531 69.3044L87.3442 69.4351C86.957 70.3242 86.4666 71.1135 85.6923 71.8686C84.4645 73.0666 82.8274 73.721 81.1199 73.781C81.0809 73.782 81.0419 73.783 81.0022 73.7841C80.9846 73.9768 80.9586 74.1728 80.9242 74.3722C80.4616 77.0319 78.4058 79.0798 75.8545 79.8318C73.3064 80.5831 70.4638 79.976 68.6345 77.9961C68.188 77.5121 67.8442 77.0166 67.5625 76.4913L62.3801 78.0188C62.4289 78.6128 62.4083 79.2153 62.2957 79.8637C61.8331 82.5234 59.7773 84.5706 57.2266 85.3226C54.6785 86.0739 51.8353 85.4675 50.0066 83.4869C49.1124 82.5175 48.6578 81.5464 48.2816 80.4197C47.5544 83.0287 45.9288 85.2903 43.2788 86.8491L42.8268 87.1151C41.465 87.9164 40.3469 88.5032 38.7293 88.6383C36.1128 88.8563 33.6007 87.3489 32.2913 85.1238C30.9719 82.8806 30.8722 79.9865 32.3475 77.7882C32.4091 77.6966 32.4719 77.6075 32.5361 77.5203L23.4869 70.2567C20.8596 68.1475 19.2261 65.7793 20.1374 62.2617C20.6285 60.366 21.8977 58.6901 23.5848 57.6976C25.0533 56.8342 26.7938 56.5046 28.4683 56.8547C29.4956 57.0689 30.3014 57.4511 31.0661 57.9561C30.9965 57.0422 31.054 56.1525 31.3653 55.151C31.7875 53.7912 32.6358 52.6269 33.7545 51.7748C32.112 51.8907 30.5393 51.3749 28.8245 50.631L26.182 49.4846C26.331 50.079 26.4147 50.7103 26.4155 51.4362C26.4179 54.3528 24.6029 56.9388 22.0335 58.2263C19.4738 59.5091 16.2981 59.414 13.9716 57.6725C12.4159 56.5082 11.757 55.2659 10.9135 53.5838L1.72791 35.2556C0.885073 33.5735 0.285043 32.302 0.283215 30.3578C0.280794 27.4413 2.09576 24.8559 4.66516 23.5678C7.22486 22.2849 10.4 22.3801 12.7264 24.1209C13.1163 24.4123 13.4497 24.7095 13.7442 25.0162L14.2253 22.9722C14.8804 20.187 15.7499 18.013 18.4681 16.6505C20.1043 15.8303 21.9044 15.6718 23.6765 16.0958C25.8535 16.6153 27.6845 17.918 28.6973 19.9399C29.8434 22.2285 29.6444 24.1902 29.008 26.5726L27.2002 33.3357L33.0738 35.8874C32.5204 34.4079 32.0645 32.8475 31.605 31.2462C30.0659 25.8837 28.7318 20.9217 31.6364 15.6801C33.8037 11.7676 37.0157 9.43884 41.2821 8.21444C45.5368 6.9934 49.5183 7.26591 53.4204 9.42808C58.662 12.3321 60.1621 17.2455 61.7012 22.608C62.1494 24.1704 62.5802 25.6979 62.8945 27.209C63.6548 26.8066 64.4893 26.5511 65.4055 26.3943C65.718 25.1118 65.431 21.9015 65.3449 20.9007L64.5375 11.5528C64.3234 9.07152 64.5577 6.92598 66.2245 4.94437C67.8913 2.96212 69.9648 2.36384 72.4467 2.14981L83.1658 1.224C85.6471 1.00932 87.7926 1.2442 89.7749 2.91037C91.7572 4.57719 92.3548 6.65134 92.5688 9.13259L93.7917 23.2955L95.2861 9.10289C95.5469 6.62601 96.1833 4.56427 98.1964 2.935C100.21 1.30508 102.359 1.11258 104.835 1.37342L116.525 2.60389C118.214 2.78153 119.56 2.9782 121.045 3.89417C123.412 5.35552 124.568 8.17992 124.281 10.899C124.001 13.5693 122.34 16.0465 119.801 17.0227C120.623 18.1554 121.097 19.5316 121.192 20.9447C122.428 16.1314 123.946 11.7967 128.588 8.99255C132.349 6.72012 136.347 6.25681 140.588 7.3027C144.434 8.25171 147.551 9.65289 149.85 13.0331C151.697 15.7478 152.684 19.2126 151.883 22.4618C151.353 24.6089 150.24 26.3392 148.324 27.4965C147.41 28.0488 146.401 28.3945 145.363 28.5304C146.218 29.1319 146.949 29.9071 147.504 30.8252C147.644 31.0573 147.77 31.2922 147.882 31.5285L147.88 31.5298ZM145.43 41.8995C144.461 42.8764 143.329 43.6994 142.126 44.341C138.534 46.2573 135.094 46.0522 131.261 45.107C130.096 44.8194 129.006 44.4452 127.988 43.9747C128.981 44.8754 129.723 46.0427 130.063 47.3929C130.503 49.1408 130.265 50.4213 129.889 52.1266L127.568 62.6641L132.587 52.6181C133.368 51.0557 133.988 49.91 135.43 48.8282C137.628 47.1783 140.637 47.0728 143.063 48.2844C145.5 49.5025 147.21 51.9525 147.211 54.7143C147.211 55.1039 147.186 55.4639 147.139 55.8058C149.61 54.3229 152.095 53.4037 154.79 54.2524C154.635 54.1817 154.48 54.1084 154.325 54.0326C150.334 52.0911 147.571 49.2431 146.111 45.0155C145.744 43.9511 145.525 42.9146 145.429 41.9002L145.43 41.8995ZM120.106 25.4702C119.692 26.1632 119.17 26.7856 118.554 27.303C118.562 27.3082 118.57 27.3126 118.578 27.3177C118.964 27.5559 119.317 27.8307 119.638 28.1352C119.754 27.2533 119.916 26.3658 120.106 25.4702ZM120.944 37.1724C120.142 38.6816 118.847 39.907 117.189 40.4991C116.413 40.7768 115.701 40.9036 114.986 40.9413C116.077 41.8417 116.902 43.0452 117.288 44.4554C119.031 42.3885 121.857 41.5935 124.471 42.1697C124.773 42.2363 125.069 42.3198 125.357 42.4204C123.822 41.2825 122.512 39.8327 121.423 38.0301C121.25 37.7437 121.091 37.4578 120.944 37.1724ZM93.7356 35.2719C93.0881 36.6756 92.0084 37.7927 90.7033 38.5453C91.5324 38.7809 92.3187 39.1627 93.0579 39.7102C94.4412 40.7345 95.2057 42.0056 95.8568 43.5647L100.848 55.5214C100.837 54.715 100.919 53.8849 101.105 53.0401L102.629 46.1198C103.005 44.4145 103.326 43.1514 104.461 41.75C104.986 41.1015 105.615 40.5736 106.311 40.1686L100.81 39.5899C98.333 39.3291 96.2706 38.6927 94.6414 36.6796C94.268 36.2182 93.9693 35.7496 93.7349 35.2713L93.7356 35.2719ZM61.2055 38.9637C60.1811 40.602 58.9501 41.9353 57.5135 43.006L60.5357 42.1153C62.777 41.4542 64.7977 41.2916 66.9271 42.4516C69.0558 43.6109 70.0155 45.3978 70.6759 47.6385L74.6129 60.9944C74.7447 61.0354 74.8759 61.0803 75.0051 61.1291L80.7426 44.0979C81.2821 42.497 81.9558 41.1751 83.2624 40.0563C83.5952 39.772 83.9388 39.524 84.2931 39.3117C82.5507 38.8035 80.9996 37.7139 80.021 36.1164C79.6943 35.5831 79.4564 35.0768 79.279 34.5725C78.5474 36.0784 77.5317 37.4187 76.1407 38.485C73.9711 40.1483 71.3629 40.8085 68.6815 41.0395C66.9002 41.1932 65.4281 41.3087 63.7038 40.6553C62.7316 40.2865 61.8905 39.6984 61.2061 38.9637L61.2055 38.9637ZM40.6162 44.809C40.5311 45.6106 40.3166 46.4069 39.986 47.1738C39.4463 48.4261 38.6374 49.4944 37.5793 50.2972C38.4352 50.2165 39.3048 50.2806 40.1382 50.4967C43.6591 51.4093 44.9126 53.9712 45.496 57.2879L47.6239 69.3876C47.8451 69.0602 48.0944 68.7514 48.3699 68.4637C48.4169 63.9791 47.4812 59.0568 46.2331 54.8245L46.159 54.5728C45.5262 52.4281 45.4278 50.39 46.5303 48.3659C46.9998 47.5039 47.5669 46.8472 48.2265 46.3274C45.62 46.5049 43.1 46.0325 40.6168 44.809L40.6162 44.809ZM136.871 23.1787C136.519 24.3159 136.212 25.6686 136.071 26.2411C135.93 26.8143 135.572 28.1545 135.355 29.3248C136.183 28.59 137.078 27.9795 138.179 27.5593C138.698 27.3616 139.232 27.2282 139.773 27.1558C139.329 26.8402 138.919 26.4735 138.549 26.0538C137.77 25.1705 137.262 24.2142 136.871 23.1787Z" fill="#2B5DA8"/>
<path fill-rule="evenodd" clip-rule="evenodd" d="M76.1212 64.3867C76.169 64.232 76.2202 64.0767 76.2726 63.9201L82.7252 44.7666C83.1402 43.5357 83.6197 42.5052 84.6233 41.6463C85.6648 40.7546 86.8151 40.3925 88.1767 40.3445C89.5337 40.2971 90.7151 40.5793 91.8127 41.3932C92.8742 42.1794 93.4253 43.1736 93.9258 44.3726L101.711 63.0237C102.669 65.32 103.128 67.3845 101.244 69.4066C100.287 70.4328 98.8972 71.0626 97.496 71.1124C96.3152 71.1541 95.1337 70.7892 94.2264 70.021C93.2668 69.2091 92.8301 68.2742 92.3787 67.1658L85.8733 67.3952C85.5009 68.5327 85.1313 69.4958 84.232 70.3731C83.3772 71.207 82.2336 71.6503 81.0476 71.6921C80.227 71.7211 79.396 71.5511 78.642 71.2133C78.8919 72.1363 79.0416 72.9915 78.8632 74.0171C78.5378 75.8897 77.0468 77.3024 75.2633 77.8275C73.4798 78.3533 71.4623 77.9753 70.1728 76.5787C69.4278 75.7717 69.0922 74.925 68.7904 73.9504L59.971 76.5503C60.2462 77.5323 60.4229 78.4256 60.2353 79.5078C59.9093 81.3805 58.4189 82.7925 56.6361 83.3183C54.8526 83.844 52.8351 83.4661 51.545 82.0701C50.6448 81.095 50.3424 80.0618 49.9749 78.8153L49.1057 75.8665C48.7382 74.62 48.4326 73.5888 48.6596 72.2805C48.8619 71.1148 49.5291 70.1182 50.4391 69.4092C50.6358 64.4743 49.6054 58.8615 48.2395 54.2336L48.1655 53.982C47.699 52.4002 47.5401 50.8863 48.3673 49.3683C49.2111 47.8184 50.5076 47.2539 52.0829 46.7894L61.1274 44.1234C62.796 43.6313 64.31 43.41 65.926 44.2895C67.5414 45.1697 68.1765 46.5619 68.6686 48.2305L72.959 62.7869C74.0847 62.896 75.1613 63.3594 75.9646 64.2132C76.0192 64.2712 76.0718 64.3293 76.1218 64.388L76.1212 64.3867ZM14.6003 30.5178L16.2619 23.4536C16.7649 21.3165 17.3088 19.5744 19.4058 18.5238C20.6018 17.9239 21.8965 17.8245 23.1907 18.1329C24.7646 18.5087 26.0921 19.4133 26.8261 20.8792C27.7213 22.6655 27.4871 24.1606 26.9861 26.0337L24.7131 34.5381L34.0634 38.6005C35.8017 39.3552 37.1607 40.0324 38.0414 41.7916C38.7734 43.253 38.7036 44.8641 38.0654 46.3457C37.5383 47.5673 36.6837 48.5456 35.487 49.1449C33.3997 50.1908 31.6642 49.5837 29.658 48.7133L22.069 45.421L23.1003 47.4784C23.7878 48.8505 24.3216 49.8729 24.3236 51.4404C24.3252 53.5622 22.9538 55.427 21.097 56.3574C19.2428 57.2865 16.9231 57.2693 15.2264 55.999C13.9721 55.06 13.4726 54.0197 12.7851 52.6483L3.59954 34.32C2.912 32.9479 2.37819 31.9256 2.37623 30.3587C2.37458 28.237 3.74662 26.3721 5.60281 25.4417C7.45706 24.5126 9.77604 24.5291 11.4727 25.7994C12.7277 26.7385 13.2272 27.7788 13.9147 29.1502L14.6003 30.5184L14.6003 30.5178ZM35.7055 77.3829L24.7975 68.6269C22.8559 67.0683 21.4714 65.4592 22.1635 62.7894C22.5155 61.431 23.4367 60.2153 24.646 59.504C25.6677 58.9032 26.8731 58.6622 28.0405 58.9056C29.3565 59.1806 30.2129 59.8726 31.2294 60.7047L34.0329 63.0008L33.3879 59.4344C33.1538 58.1417 32.9654 57.0573 33.3644 55.7739C33.7185 54.6334 34.5132 53.6993 35.5355 53.0972C36.7447 52.3859 38.2555 52.1705 39.6132 52.5225C42.2889 53.2158 43.004 55.2017 43.435 57.6502L46.4291 74.6801C47.1642 78.8635 46.0327 82.8041 42.2187 85.0478L41.7667 85.3138C40.6952 85.9437 39.8189 86.45 38.5562 86.555C36.7306 86.7072 35.0025 85.6057 34.096 84.0647C33.1862 82.5179 33.0612 80.4833 34.086 78.9562C34.55 78.2641 35.0814 77.8022 35.7055 77.3829ZM114.123 64.3205C112.801 64.1886 111.506 63.9882 110.153 63.6901C105.352 62.6323 102.049 58.4835 103.15 53.4915L104.674 46.5712C104.975 45.2042 105.189 44.1796 106.088 43.0688C107.326 41.5396 109.399 40.9914 111.281 41.4065C113.162 41.8209 114.813 43.1892 115.293 45.0974C115.643 46.4839 115.406 47.5036 115.105 48.8699L113.976 53.9956C113.964 54.0529 113.94 54.1826 113.947 54.2612C114.043 54.3273 114.26 54.3863 114.348 54.4055C114.986 54.5462 115.608 54.6577 116.235 54.7386L117.415 49.3789C117.716 48.0119 117.93 46.9879 118.83 45.8765C120.068 44.3473 122.14 43.7991 124.022 44.2142C125.904 44.6286 127.555 45.9969 128.035 47.9051C128.384 49.2916 128.147 50.3106 127.847 51.6776L123.942 69.3988C123.641 70.7658 123.427 71.7897 122.527 72.9012C121.289 74.4304 119.217 74.9786 117.335 74.5635C115.452 74.1491 113.802 72.7807 113.322 70.8726C112.973 69.4861 113.21 68.4671 113.51 67.1001L114.123 64.3212L114.123 64.3205ZM140.447 73.6149L134.99 76.8981C132.792 78.2203 130.618 79.1467 128.154 77.9153C126.868 77.2725 125.925 76.2229 125.47 74.8577C124.906 73.1682 125.43 71.6273 126.191 70.1042L134.46 53.5532C135.086 52.3014 135.543 51.3602 136.687 50.5019C138.257 49.3245 140.409 49.2979 142.128 50.1562C143.852 51.0178 145.118 52.747 145.119 54.7146C145.12 56.1449 144.642 57.0753 144.016 58.3277L142.731 60.9L148.188 57.6168C150.385 56.2953 152.559 55.3689 155.023 56.5997C156.31 57.2425 157.253 58.292 157.708 59.6573C158.272 61.3461 157.748 62.887 156.987 64.4101L148.718 80.9611C148.092 82.2129 147.635 83.1541 146.491 84.013C144.922 85.1904 142.769 85.2171 141.05 84.3581C139.326 83.4965 138.06 81.7673 138.059 79.7997C138.059 78.37 138.537 77.439 139.162 76.1872L140.447 73.6149ZM59.8397 37.1616C57.949 40.5738 55.1934 42.5539 51.4465 43.6294C47.7087 44.7021 44.3047 44.4831 40.9003 42.5969C36.2565 40.0239 34.978 35.4153 33.6161 30.6709C32.2543 25.9258 30.894 21.3395 33.4663 16.6963C35.357 13.2841 38.112 11.3034 41.8589 10.2279C45.5967 9.15512 49.0007 9.3742 52.4057 11.2603C57.0482 13.8327 58.3274 18.4426 59.6892 23.187C61.0511 27.9321 62.412 32.5178 59.839 37.1616L59.8397 37.1616ZM79.3391 14.3877L78.1745 14.4884L78.676 20.2964C79.1224 25.4636 79.5027 33.2696 74.8673 36.8244C73.0302 38.2327 70.7661 38.7593 68.5019 38.9549C67.0741 39.0785 65.815 39.2179 64.4458 38.6988C62.5942 37.9972 61.4455 36.1042 61.2793 34.1844C61.1573 32.7755 61.5537 31.3003 62.4716 30.2094C63.4519 29.0438 64.6365 28.6027 66.1123 28.4039C66.3884 28.3667 66.6556 28.2873 66.8604 28.0894C68.0445 26.9452 67.5692 22.3286 67.4303 20.7214L66.6228 11.3735C66.4603 9.49016 66.538 7.8236 67.8262 6.29197C69.1144 4.76034 70.7427 4.39807 72.6261 4.23554L83.3453 3.30972C85.2286 3.14719 86.8952 3.22488 88.4274 4.51309C89.9591 5.80129 90.3207 7.42965 90.4832 9.31365L92.2703 30.013C92.4019 31.5416 92.5214 32.6897 91.9433 34.1466C91.161 36.1187 89.1965 37.3442 87.128 37.5236C85.0588 37.7023 82.9134 36.8313 81.8052 35.0224C80.9866 33.6861 80.9062 32.535 80.7745 31.0058L79.3397 14.387L79.3391 14.3877ZM108.411 14.6057L108.311 15.5577L113.189 16.071C114.54 16.213 115.65 16.3333 116.829 17.0611C118.509 18.0987 119.284 20.1509 119.083 22.0659C118.881 23.9815 117.696 25.8262 115.835 26.4913C114.53 26.9577 113.422 26.8452 112.07 26.7025L107.192 26.1892L107.065 27.3938L113.839 28.1068C115.19 28.2487 116.299 28.3691 117.478 29.0975C119.158 30.1351 119.934 32.1873 119.732 34.1023C119.531 36.0173 118.345 37.8633 116.485 38.5284C115.18 38.9948 114.07 38.8816 112.719 38.7396L101.03 37.5092C99.1499 37.3113 97.5277 36.919 96.2685 35.3634C95.0094 33.8077 94.9628 32.1398 95.1607 30.2593L97.3644 9.32308C97.5622 7.44328 97.9545 5.82172 99.5102 4.56256C101.066 3.30275 102.733 3.2575 104.614 3.45534L116.304 4.68581C117.656 4.82779 118.764 4.94812 119.943 5.67591C121.624 6.71351 122.399 8.76638 122.198 10.6807C121.997 12.5956 120.81 14.4411 118.951 15.1061C117.646 15.5725 116.537 15.46 115.185 15.3174L108.411 14.6044L108.411 14.6057ZM122.838 22.978C124.02 18.1855 125.125 13.531 129.668 10.7857C132.96 8.79699 136.352 8.41583 140.085 9.3367C143.425 10.1607 146.135 11.2953 148.118 14.2123C149.625 16.4276 150.507 19.2983 149.85 21.9626C149.452 23.5731 148.672 24.8421 147.241 25.7078C145.952 26.4862 144.418 26.696 142.96 26.3366C141.861 26.0652 140.874 25.5261 140.121 24.6724C139.178 23.6021 138.744 22.3446 138.367 20.9935C138.182 20.3312 138.05 19.8467 137.36 19.6766C136.918 19.5679 136.578 19.635 136.225 19.9201C135.119 20.8112 134.354 24.4691 134.04 25.7419C133.726 27.0141 132.702 30.6095 133.267 31.9119C133.448 32.3296 133.715 32.5462 134.159 32.6556C134.85 32.8256 135.192 32.4586 135.663 31.9583C136.625 30.9372 137.594 30.0248 138.927 29.5165C139.988 29.1117 141.118 29.0933 142.214 29.3634C143.676 29.7241 144.931 30.6189 145.712 31.9107C146.576 33.3402 146.676 34.8313 146.28 36.4393C145.623 39.1035 143.508 41.2347 141.143 42.496C138.045 44.1485 135.089 43.8963 131.764 43.0768C128.014 42.1515 125.213 40.2535 123.216 36.9497C120.474 32.4129 121.658 27.7667 122.838 22.9793L122.838 22.978ZM165.808 52.9524C162.121 54.2263 158.747 53.856 155.242 52.1504C151.736 50.4448 149.364 48.0189 148.09 44.3319C146.367 39.3433 148.498 35.0103 150.648 30.5925C152.807 26.1538 154.863 21.8339 159.88 20.1011C163.568 18.8272 166.941 19.1975 170.446 20.9031C173.952 22.6088 176.325 25.034 177.598 28.7223C179.321 33.7103 177.189 38.044 175.04 42.4611C172.881 46.8998 170.825 51.2197 165.808 52.9524L165.808 52.9524ZM62.5997 65.4211L59.5137 54.9531L59.3891 54.9894C60.4001 58.7285 60.9007 62.1565 60.9187 65.9159L62.599 65.4204L62.5997 65.4211ZM49.6348 32.4527C50.1079 31.242 48.9266 27.5099 48.5997 26.3703C48.2749 25.2398 47.2752 21.394 46.2399 20.6238C45.8696 20.3484 45.226 20.3841 44.809 20.5041C44.3926 20.6234 43.8279 20.9347 43.6598 21.3644C43.1904 22.5652 44.3821 26.3571 44.7069 27.4869C45.0337 28.6252 46.0121 32.4173 47.0547 33.1919C47.44 33.4782 48.056 33.4792 48.497 33.3532C48.938 33.2265 49.4603 32.8993 49.6347 32.452L49.6348 32.4527ZM161.368 42.628C162.53 42.0434 164.146 38.4791 164.665 37.4131C165.18 36.3549 167.007 32.8269 166.752 31.5623C166.661 31.1105 166.158 30.7064 165.769 30.5171C165.378 30.3272 164.751 30.1812 164.338 30.3889C163.186 30.9683 161.538 34.5843 161.023 35.6418C160.505 36.7072 158.698 40.1803 158.954 41.454C159.049 41.9246 159.507 42.3376 159.919 42.5384C160.332 42.7392 160.939 42.8443 161.368 42.6287L161.368 42.628Z" fill="white"/>
<path fill-rule="evenodd" clip-rule="evenodd" d="M14.6096 51.733C15.3688 53.2475 15.6537 53.7682 16.4493 54.3646C17.3976 55.0738 18.8564 55.1959 20.1813 54.5316C21.5074 53.8673 22.2827 52.6257 22.2813 51.4419C22.2805 50.4473 22.0338 49.9073 21.2746 48.3929L18.0771 42.0121L18.6641 41.7181L30.4706 46.8409C32.262 47.6257 33.2846 47.9661 34.5725 47.3204C35.3298 46.9408 35.8505 46.3248 36.1906 45.5383C36.6064 44.5721 36.6623 43.5966 36.2164 42.7066C35.704 41.6841 35.031 41.2394 33.2496 40.4734L22.2863 35.7102L25.014 25.5069C25.5149 23.6215 25.5134 22.8169 25.001 21.7943C24.5551 20.9044 23.7405 20.3655 22.7169 20.1201C21.883 19.9222 21.0782 19.9699 20.321 20.3495C19.0337 20.9946 18.6933 22.0179 18.2499 23.9222L15.533 35.4699L14.946 35.7639L12.0897 30.0646C11.3305 28.5502 11.0462 28.0294 10.2493 27.4331C9.30172 26.7232 7.84287 26.6018 6.5174 27.2667C5.19191 27.9304 4.41661 29.172 4.41737 30.3565C4.41818 31.351 4.66487 31.8903 5.42409 33.4054L14.6096 51.7337L14.6096 51.733ZM41.1833 83.2876C44.2213 81.5004 45.0093 78.4049 44.4182 75.0337L41.4242 58.0038C41.1207 56.2682 40.8206 54.9443 39.101 54.499C38.3054 54.2929 37.3464 54.4001 36.5704 54.8566C35.9406 55.2271 35.4985 55.7695 35.3133 56.3795C35.0851 57.1005 35.1484 57.6508 35.3961 59.0708L37.0283 68.0931L29.9345 62.2838C28.8139 61.3766 28.3638 61.0546 27.6221 60.9039C26.9996 60.7696 26.3107 60.8923 25.6802 61.2634C24.9049 61.7193 24.3449 62.5054 24.1389 63.3017C23.6935 65.0207 24.7049 65.9271 26.0747 67.0348L38.5204 77.025C38.543 77.7292 38.2339 78.2377 37.5873 78.6181C36.5695 79.2169 36.1614 79.5222 35.7808 80.0944C35.2699 80.8521 35.2661 82.0288 35.8556 83.0304C36.4445 84.0321 37.4752 84.6007 38.3857 84.5214C39.113 84.4634 39.568 84.239 40.7313 83.5549L41.1833 83.2889L41.1833 83.2876ZM75.5894 68.0584C75.176 66.6563 74.9916 66.1631 74.4774 65.6115C73.7971 64.8937 72.6384 64.6093 71.4644 64.9365L66.7101 48.8074C66.4347 47.8722 66.09 46.7042 64.9495 46.0821C63.8082 45.4606 62.6396 45.8052 61.705 46.0812L52.6606 48.7472C51.7254 49.0226 50.7189 49.3194 50.1606 50.3436C49.5519 51.4613 49.9121 52.6838 50.1241 53.403L50.1982 53.6546C51.8779 59.3546 52.796 65.6508 52.4153 70.5902C51.4633 71.0075 50.8135 71.7854 50.671 72.6285C50.5379 73.3713 50.6504 73.8853 51.0637 75.2881L51.9329 78.237C52.3462 79.6391 52.5307 80.1323 53.0448 80.6846C53.7077 81.4078 54.8717 81.7097 56.0579 81.3596C57.2447 81.0095 58.0587 80.1253 58.2234 79.1577C58.3558 78.4149 58.2433 77.9009 57.8306 76.4981L57.4382 75.1679L70.1682 71.4154L70.5607 72.7462C70.9741 74.1483 71.1579 74.6415 71.6727 75.1931C72.3355 75.9163 73.4996 76.2176 74.6857 75.8682C75.8726 75.5181 76.6865 74.6332 76.8512 73.6663C76.9843 72.9235 76.8718 72.4094 76.4585 71.0073L75.5894 68.0584ZM65.1346 66.802L58.8056 68.6675C59.0337 64.5349 58.8701 60.401 57.0686 54.2879L56.8667 53.605L60.8941 52.4181L65.134 66.8026L65.1346 66.802ZM78.2077 64.572C77.6475 66.242 77.2813 67.5492 78.5806 68.7603C79.182 69.3209 80.0761 69.6833 80.9753 69.651C81.7061 69.6255 82.3533 69.3588 82.8067 68.9114C83.3504 68.3856 83.5762 67.8714 84.016 66.5057L84.3712 65.4048L93.7381 65.0747L94.1697 66.1475C94.7046 67.4788 94.9658 67.9764 95.5457 68.4623C96.0292 68.8764 96.6935 69.0974 97.4244 69.0713C98.3236 69.0395 99.1903 68.6146 99.7502 68.0139C100.961 66.7146 100.504 65.4365 99.8273 63.8093L92.0422 45.1575C91.5307 43.9567 91.1567 43.4446 90.5985 43.0326C89.9242 42.5313 89.2238 42.3497 88.2498 42.3841C87.2757 42.4186 86.5899 42.6485 85.9527 43.1967C85.4245 43.6468 85.087 44.1842 84.6616 45.4184L78.209 64.5719L78.2077 64.572ZM91.5593 59.6743L86.1638 59.8647L88.6002 52.3512L91.5593 59.675L91.5593 59.6743ZM115.504 67.5387C115.181 69.0034 115.087 69.5195 115.302 70.3734C115.558 71.3894 116.492 72.2868 117.774 72.5687C119.055 72.8512 120.281 72.4299 120.94 71.6154C121.494 70.9315 121.626 70.4228 121.948 68.9587L125.852 51.2375C126.175 49.7728 126.27 49.2567 126.055 48.4029C125.799 47.3868 124.864 46.4894 123.582 46.2076C122.301 45.925 121.075 46.3464 120.416 47.1608C119.862 47.8447 119.731 48.3534 119.408 49.8175L117.844 56.9203C116.569 56.8699 115.428 56.7337 113.909 56.3989C112.335 56.0523 111.663 55.002 111.982 53.5555L113.111 48.4298C113.434 46.9651 113.529 46.4483 113.314 45.5951C113.058 44.5791 112.123 43.6817 110.842 43.3998C109.56 43.118 108.335 43.5387 107.675 44.3531C107.121 45.037 106.99 45.5457 106.668 47.0104L105.143 53.9301C104.264 57.9208 107.004 60.9051 110.592 61.6953C112.752 62.1714 114.458 62.3553 116.626 62.4489L115.504 67.538L115.504 67.5387ZM146.891 80.0484L155.16 63.4975C155.73 62.3574 156.115 61.3343 155.771 60.3035C155.511 59.5237 154.983 58.8616 154.111 58.426C152.702 57.7226 151.461 58.0245 149.241 59.3664L137.765 66.2695L142.189 57.4151C142.859 56.0737 143.077 55.5954 143.077 54.7154C143.077 53.6675 142.389 52.5693 141.215 51.9832C140.041 51.3965 138.75 51.5063 137.912 52.1352C137.208 52.6639 136.957 53.1243 136.286 54.4663L128.017 71.0173C127.447 72.158 127.062 73.1805 127.406 74.2119C127.666 74.9911 128.194 75.6539 129.066 76.0894C130.475 76.7934 131.715 76.491 133.937 75.1491L145.412 68.2466L140.988 77.101C140.318 78.4424 140.1 78.9207 140.099 79.8007C140.1 80.8486 140.788 81.9468 141.962 82.5329C143.136 83.1196 144.426 83.0104 145.264 82.3815C145.968 81.8529 146.22 81.3918 146.89 80.0504L146.891 80.0484ZM58.0535 36.1724C60.1582 32.373 59.1296 28.6367 57.7273 23.7509C56.325 18.8652 55.2154 15.1511 51.4167 13.0465C48.7442 11.5661 45.9655 11.1742 42.4229 12.1904C38.881 13.2073 36.7337 15.0129 35.2526 17.686C33.148 21.4847 34.1765 25.2217 35.5788 30.1075C36.9811 34.9932 38.0914 38.7066 41.8901 40.8113C44.5626 42.2917 47.3413 42.6842 50.8832 41.6673C54.4258 40.6505 56.5731 38.8449 58.0535 36.1724ZM51.5363 33.1953C51.2059 34.0396 50.3634 34.9417 49.0604 35.3157C47.7581 35.6904 46.5646 35.3712 45.8366 34.8308C44.9394 34.1633 44.2633 33.3433 42.7444 28.0502C41.2255 22.7577 41.3525 21.6637 41.7584 20.6216C42.0895 19.7773 42.9434 18.9154 44.2464 18.5414C45.5487 18.1674 46.7308 18.4457 47.4581 18.9855C48.3552 19.6536 49.0429 20.5138 50.5618 25.8069C52.0806 31.0994 51.9422 32.1532 51.5363 33.1953ZM82.8081 30.8313C82.9537 32.519 83.0259 33.1082 83.5456 33.9564C84.1645 34.9656 85.4745 35.6179 86.9517 35.4907C88.4288 35.3628 89.6086 34.4963 90.0451 33.396C90.4118 32.4713 90.3812 31.8784 90.2356 30.1907L88.4485 9.49063C88.3537 8.39363 88.236 7.02237 87.1123 6.07743C85.9887 5.13249 84.6175 5.25154 83.5204 5.34573L72.8013 6.27155C71.7043 6.36639 70.3324 6.48415 69.3881 7.60777C68.4432 8.7314 68.5616 10.1027 68.6564 11.1997L69.4638 20.5475C69.8521 25.0486 70.166 29.9108 66.3843 30.4285C65.3326 30.562 64.632 30.8142 64.0341 31.5246C63.5135 32.1438 63.2319 33.0604 63.3135 34.0099C63.4268 35.3253 64.2021 36.4279 65.169 36.7903C65.9388 37.085 66.5118 37.0787 68.3262 36.9214C74.8673 36.3566 77.7281 33.0486 76.6426 20.4727L75.9654 12.6306L81.1982 12.179L82.8087 30.8319L82.8081 30.8313ZM112.933 36.71C114.45 36.8698 115.024 36.8875 115.798 36.6066C116.772 36.2619 117.566 35.1958 117.703 33.8896C117.84 32.5834 117.286 31.3752 116.406 30.8357C115.707 30.3997 115.143 30.298 113.626 30.1382L104.821 29.2113L105.375 23.9457L112.284 24.6729C113.8 24.8328 114.374 24.8505 115.148 24.5695C116.122 24.2249 116.915 23.1587 117.053 21.8525C117.19 20.5464 116.636 19.3388 115.756 18.7986C115.056 18.3633 114.492 18.261 112.975 18.1018L106.067 17.3745L106.595 12.3615L115.398 13.2884C116.915 13.4476 117.488 13.4653 118.263 13.185C119.236 12.8403 120.029 11.7742 120.167 10.4687C120.305 9.1625 119.751 7.95365 118.87 7.41411C118.171 6.97813 117.606 6.87644 116.09 6.71725L104.4 5.48677C103.305 5.37086 101.936 5.22711 100.795 6.1504C99.6543 7.0737 99.5099 8.44302 99.3946 9.53821L97.191 30.4745C97.0757 31.5697 96.932 32.939 97.8553 34.0797C98.7786 35.2205 100.147 35.3649 101.243 35.4795L112.932 36.71L112.933 36.71ZM124.821 23.4668C123.604 28.4015 122.716 32.1745 124.963 35.8921C126.543 38.5067 128.757 40.2311 132.252 41.0932C135.83 41.9759 137.972 41.8713 140.182 40.6934C142.895 39.2464 143.983 37.2244 144.297 35.9497C144.612 34.6749 144.46 33.7866 143.964 32.9662C143.468 32.1457 142.67 31.578 141.725 31.3448C140.923 31.1473 140.235 31.1958 139.655 31.4234C138.741 31.7655 138.035 32.4198 137.149 33.3574C135.967 34.6148 134.966 34.9565 133.67 34.6371C132.437 34.3326 131.756 33.5543 131.394 32.7234C130.825 31.4054 130.872 30.0644 132.058 25.2523C133.246 20.4409 133.827 19.2317 134.944 18.3295C135.652 17.7618 136.616 17.3892 137.849 17.6937C139.145 18.0131 139.872 18.7812 140.334 20.4443C140.682 21.6864 141.004 22.5945 141.653 23.3217C142.061 23.7931 142.648 24.1561 143.449 24.3536C144.395 24.5868 145.365 24.4555 146.186 23.9595C147.007 23.4635 147.554 22.7484 147.868 21.473C148.183 20.1982 148.16 17.9017 146.431 15.3595C145.022 13.2889 143.174 12.2003 139.596 11.3182C136.1 10.4561 133.338 10.9526 130.724 12.5326C127.007 14.7786 126.037 18.5315 124.82 23.4668L124.821 23.4668ZM165.142 51.0226C169.247 49.6047 170.981 46.1381 173.205 41.5674C175.429 36.9967 177.086 33.4931 175.669 29.388C174.672 26.5002 172.867 24.3503 169.553 22.7384C166.24 21.1258 163.435 21.0328 160.548 22.0308C156.442 23.4487 154.708 26.9153 152.484 31.486C150.26 36.0567 148.603 39.5603 150.021 43.6654C151.018 46.5531 152.822 48.7024 156.135 50.315C159.449 51.9276 162.254 52.0206 165.142 51.0233L165.142 51.0226ZM162.286 44.4511C161.476 44.8579 160.246 44.9657 159.027 44.373C157.808 43.7796 157.134 42.7449 156.954 41.8569C156.733 40.7599 156.779 39.6992 159.188 34.7475C161.597 29.7957 162.423 29.0674 163.422 28.5638C164.232 28.157 165.444 28.087 166.663 28.6804C167.882 29.2738 168.575 30.2699 168.755 31.1585C168.975 32.2549 168.911 33.3541 166.502 38.3059C164.093 43.2577 163.285 43.9481 162.287 44.4517L162.286 44.4511Z" fill="#FECC00"/>
<path fill-rule="evenodd" clip-rule="evenodd" d="M22.26 51.785C22.2738 51.6704 22.2811 51.5558 22.2813 51.442C22.2805 50.4475 22.0338 49.9074 21.2745 48.393L18.4302 42.7183L18.0852 42.8908L21.2827 49.2717C21.8952 50.4942 22.1742 51.0807 22.2593 51.785L22.26 51.785ZM36.499 44.44C36.575 43.8441 36.4924 43.2582 36.215 42.7061C35.7027 41.6835 35.0296 41.2388 33.2482 40.4728L22.5032 35.8045L22.2938 36.5884L33.257 41.3515C35.0377 42.1175 35.7115 42.5622 36.2238 43.5848C36.3632 43.8624 36.4532 44.1484 36.499 44.44ZM25.3654 23.761C25.4396 22.9816 25.3189 22.4293 25.0004 21.7938C24.5544 20.9039 23.7399 20.365 22.7162 20.1195C21.8823 19.9217 21.0776 19.9694 20.3203 20.349C19.033 20.994 18.6927 22.0173 18.2492 23.9217L15.5323 35.4694L14.9453 35.7634L12.089 30.0641C11.3298 28.5496 11.0455 28.0289 10.2487 27.4326C9.30104 26.7226 7.84219 26.6012 6.51672 27.2662C5.19124 27.9299 4.41594 29.1715 4.41669 30.3559C4.41665 30.5478 4.4262 30.7227 4.44674 30.8909C4.57912 29.8164 5.3275 28.7448 6.52484 28.1455C7.85032 27.4812 9.30917 27.6026 10.2568 28.3119C11.0537 28.9075 11.3379 29.4283 12.0971 30.9434L14.9534 36.6427L15.5405 36.3487L18.2573 24.801C18.7008 22.8966 19.0405 21.8734 20.3285 21.2283C21.0857 20.8487 21.8905 20.801 22.7243 20.9989C23.748 21.2443 24.5632 21.7838 25.0085 22.6737C25.1943 23.0446 25.3129 23.3868 25.3647 23.7623L25.3654 23.761ZM44.595 77.3646C44.6206 76.6124 44.5582 75.8305 44.4182 75.0338L41.4242 58.0039C41.1207 56.2683 40.8206 54.9444 39.1009 54.4991C38.3054 54.293 37.3464 54.4002 36.5704 54.8567C35.9406 55.2273 35.4985 55.7696 35.3133 56.3796C35.1702 56.8331 35.1422 57.2191 35.2026 57.7973C35.2242 57.6176 35.2641 57.4435 35.3221 57.2589C35.5072 56.6495 35.9493 56.1066 36.5792 55.736C37.3551 55.2795 38.3141 55.1717 39.1097 55.3784C40.8287 55.8237 41.1294 57.1476 41.4329 58.8832L44.427 75.9131C44.5132 76.404 44.5694 76.8893 44.595 77.3652L44.595 77.3646ZM36.8525 67.9486L29.9352 62.2839C28.8145 61.3767 28.3645 61.0547 27.6227 60.904C27.0002 60.7697 26.3113 60.8924 25.6809 61.2635C24.9055 61.7194 24.3455 62.5056 24.1395 63.3018C24.0192 63.7648 24.005 64.1695 24.075 64.5344C24.0921 64.4204 24.1163 64.3031 24.1483 64.1811C24.3543 63.3855 24.9143 62.5994 25.6896 62.1429C26.3201 61.7717 27.009 61.649 27.6315 61.7833C28.3732 61.934 28.8233 62.2567 29.9439 63.1639L37.0377 68.9731L36.8525 67.9499L36.8525 67.9486ZM38.3855 77.7875C38.2386 78.1194 37.9733 78.3913 37.5879 78.6176C36.5701 79.2164 36.1621 79.5216 35.7814 80.0939C35.4564 80.5759 35.3367 81.2268 35.4442 81.8944C35.4954 81.5531 35.612 81.2371 35.7902 80.9726C36.1715 80.4003 36.5795 80.0951 37.5967 79.4963C38.2433 79.1158 38.5524 78.6073 38.5298 77.9031L38.3855 77.7868L38.3855 77.7875ZM75.59 68.0585C75.1766 66.6564 74.9922 66.1632 74.478 65.6116C73.7977 64.8938 72.639 64.6094 71.465 64.9366L66.7107 48.8075C66.4353 47.8723 66.0907 46.7043 64.9501 46.0822C63.8089 45.4607 62.6402 45.8053 61.7057 46.0814L52.6612 48.7473C51.726 49.0227 50.7195 49.3195 50.1612 50.3437C49.8176 50.9735 49.7826 51.6373 49.8554 52.2246C49.895 51.8918 49.9905 51.5526 50.17 51.2224C50.7276 50.1982 51.7348 49.9013 52.67 49.626L61.7144 46.96C62.6496 46.6846 63.8183 46.34 64.9589 46.9608C66.0994 47.5823 66.4441 48.751 66.7195 49.6862L71.4737 65.8152C72.6478 65.4887 73.8064 65.7724 74.4868 66.4903C75.001 67.0419 75.1854 67.535 75.5988 68.9372L76.4679 71.8861C76.6833 72.6157 76.817 73.1048 76.8763 73.5113C76.9672 72.8463 76.8429 72.3103 76.4591 71.0074L75.59 68.0585ZM52.5008 68.335C52.4988 69.1116 52.4718 69.8658 52.416 70.5903C51.464 71.0076 50.8141 71.7855 50.6716 72.6286C50.6075 72.985 50.6008 73.2888 50.6553 73.6629C50.6626 73.6121 50.6705 73.56 50.6804 73.5072C50.8222 72.6642 51.4727 71.8862 52.4247 71.4689C52.5013 70.4743 52.5253 69.4236 52.5008 68.335ZM58.2484 79.0021C58.3394 78.3371 58.215 77.8011 57.8313 76.4982L57.6784 75.9787L57.4482 76.0467L57.8407 77.3775C58.0555 78.1078 58.1891 78.5969 58.2491 79.0028L58.2484 79.0021ZM64.905 66.8694L58.8575 68.6514C58.8455 68.9501 58.8315 69.2475 58.815 69.5456L65.144 67.6801L64.905 66.8694ZM58.8863 66C58.8892 62.708 58.4928 59.1586 57.1063 54.4145L56.876 54.4825L57.078 55.1654C58.3712 59.5527 58.8205 62.9201 58.8863 65.9993L58.8863 66ZM78.2084 64.5714C77.8666 65.5908 77.5971 66.4748 77.7339 67.2839C77.8031 66.7187 77.9948 66.1131 78.2171 65.4501L84.6697 46.2959C85.0951 45.0617 85.4326 44.525 85.9608 44.0748C86.598 43.5273 87.2838 43.2967 88.2578 43.2622C89.2319 43.2278 89.9322 43.4095 90.6065 43.9107C91.1648 44.3227 91.5394 44.8348 92.0503 46.0356L99.8354 64.6874C100.127 65.389 100.378 66.0258 100.473 66.6272C100.61 65.7666 100.264 64.8607 99.8266 63.8081L92.0415 45.1563C91.53 43.9555 91.1561 43.4434 90.5978 43.0314C89.9235 42.5301 89.2231 42.3485 88.2491 42.3829C87.2751 42.4174 86.5892 42.6473 85.952 43.1955C85.4238 43.6456 85.0864 44.183 84.6609 45.4173L78.2084 64.5708L78.2084 64.5714ZM91.2179 59.6856L86.4616 59.8534L86.1732 60.7422L91.5687 60.5518L91.2185 59.685L91.2179 59.6856ZM115.504 67.5381C115.236 68.7585 115.125 69.3202 115.22 69.9678C115.263 69.5686 115.364 69.0941 115.513 68.4168L116.634 63.3276L116.434 63.3186L115.504 67.5381ZM126.146 49.686C126.196 49.2224 126.17 48.861 126.055 48.4023C125.799 47.3863 124.864 46.4889 123.582 46.207C122.301 45.9245 121.075 46.3458 120.416 47.1603C119.862 47.8442 119.731 48.3529 119.408 49.817L117.844 56.9198C116.569 56.8694 115.428 56.7331 113.909 56.3983C112.778 56.1494 112.113 55.5369 111.946 54.6754C111.751 55.9964 112.432 56.9497 113.918 57.277C115.437 57.6118 116.578 57.7481 117.853 57.7984L119.417 50.6956C119.74 49.2315 119.872 48.7222 120.425 48.0389C121.084 47.2245 122.309 46.8032 123.591 47.0857C124.872 47.3675 125.808 48.2649 126.064 49.281C126.1 49.4237 126.127 49.5561 126.146 49.686ZM113.404 46.8796C113.455 46.4153 113.428 46.054 113.313 45.5953C113.057 44.5792 112.123 43.6818 110.841 43.4C109.56 43.1181 108.335 43.5388 107.675 44.3532C107.121 45.0371 106.989 45.5458 106.667 47.0106L105.142 53.9302C104.99 54.6205 104.946 55.2812 104.997 55.9057C105.018 55.5497 105.068 55.1837 105.151 54.8089L106.676 47.8892C106.998 46.4245 107.13 45.9158 107.683 45.2319C108.343 44.4174 109.568 43.9967 110.85 44.2786C112.132 44.5611 113.067 45.4579 113.322 46.4739C113.358 46.6166 113.385 46.7497 113.404 46.8796ZM155.869 61.534C155.928 61.1197 155.907 60.7114 155.771 60.3024C155.51 59.5225 154.982 58.8604 154.11 58.4248C152.701 57.7215 151.461 58.0233 149.24 59.3652L138.405 65.8833L137.774 67.1469L149.249 60.2438C151.47 58.9019 152.711 58.5994 154.12 59.3035C154.992 59.739 155.52 60.4011 155.78 61.1804C155.82 61.2984 155.849 61.4158 155.87 61.5333L155.869 61.534ZM143.051 55.1854C143.068 55.0375 143.077 54.8833 143.076 54.7148C143.076 53.667 142.388 52.5687 141.214 51.9827C140.04 51.396 138.749 51.5058 137.911 52.1347C137.208 52.6633 136.956 53.1238 136.286 54.4658L128.016 71.0168C127.511 72.0268 127.152 72.9449 127.315 73.8578C127.404 73.2279 127.681 72.5831 128.025 71.8955L136.294 55.3445C136.965 54.0031 137.216 53.542 137.92 53.0133C138.759 52.3844 140.049 52.2747 141.223 52.8614C142.245 53.3715 142.899 54.2704 143.051 55.1854ZM144.78 69.5084L140.988 77.0985C140.317 78.4399 140.1 78.9182 140.099 79.7982C140.1 79.9342 140.111 80.0706 140.134 80.207C140.208 79.5825 140.454 79.0623 140.996 77.9778L145.42 69.1235L144.78 69.5084L144.78 69.5084ZM59.2473 31.763C59.3142 29.3394 58.5919 26.7631 57.7266 23.7491C56.3244 18.8633 55.2147 15.1493 51.416 13.0446C48.7435 11.5642 45.9648 11.1724 42.4222 12.1886C38.8803 13.2054 36.733 15.011 35.252 17.6842C34.2897 19.4213 33.9823 21.1455 34.0669 22.973C34.1078 21.4668 34.4544 20.0194 35.2607 18.5635C36.7418 15.891 38.8891 14.0848 42.431 13.0679C45.9736 12.0517 48.7523 12.4435 51.4247 13.924C55.2235 16.0286 56.3331 19.742 57.7354 24.6278C58.4969 27.2805 59.1476 29.5941 59.2473 31.763ZM51.5356 33.1941C51.2052 34.0384 50.3627 34.9405 49.0597 35.3145C47.7574 35.6892 46.5639 35.37 45.8359 34.8296C44.9388 34.1621 44.2626 33.3421 42.7437 28.049C41.9411 25.2543 41.5984 23.6309 41.513 22.567C41.4327 23.5799 41.6905 25.2275 42.7525 28.9277C44.2713 34.2208 44.9475 35.0407 45.8446 35.7082C46.5727 36.2487 47.7655 36.5672 49.0685 36.1932C50.3715 35.8192 51.2139 34.9164 51.5444 34.0728C51.7378 33.5772 51.8701 33.0789 51.7923 32.1235C51.757 32.5603 51.6587 32.8781 51.5356 33.1941ZM90.3274 32.162C90.357 31.67 90.3121 31.0831 90.2349 30.1888L88.4479 9.48879C88.353 8.3918 88.2353 7.02054 87.1116 6.0756C85.988 5.13066 84.6168 5.2497 83.5197 5.3439L72.8006 6.26972C71.7036 6.36456 70.3317 6.48232 69.3874 7.60594C68.6019 8.54065 68.5511 9.64626 68.611 10.6233C68.6512 9.89568 68.8395 9.1471 69.3962 8.4846C70.3411 7.36162 71.7124 7.24322 72.8094 7.14837L83.5285 6.22256C84.6255 6.12836 85.9968 6.00931 87.1204 6.95426C88.2434 7.8992 88.3618 9.27045 88.4566 10.3675L90.2436 31.0675C90.2804 31.4951 90.31 31.8519 90.3274 32.162ZM69.6825 24.6732C69.6548 27.631 68.9987 30.0689 66.383 30.4267C65.3312 30.5601 64.6306 30.8123 64.0328 31.5227C63.5121 32.1419 63.2305 33.0586 63.3122 34.0081C63.3166 34.0588 63.3223 34.1101 63.328 34.1608C63.4013 33.483 63.6552 32.8606 64.0409 32.402C64.6387 31.6917 65.34 31.4394 66.3911 31.306C69.2621 30.9131 69.7724 28.0162 69.6819 24.6738L69.6825 24.6732ZM76.866 25.1993C76.8669 23.7904 76.7927 22.221 76.6413 20.4715L76.0397 13.5022L75.9728 13.5081L76.6501 21.3502C76.7706 22.7442 76.8426 24.0242 76.866 25.1993ZM117.701 33.8956L117.702 33.8884C117.839 32.5823 117.285 31.3741 116.405 30.8345C115.706 30.3986 115.141 30.2969 113.624 30.137L104.92 29.2209L104.828 30.0888L113.633 31.0157C115.149 31.1755 115.714 31.2779 116.413 31.7132C117.093 32.1305 117.578 32.9452 117.701 33.8956ZM117.051 21.8585L117.052 21.8513C117.189 20.5452 116.635 19.3376 115.755 18.7974C115.055 18.3621 114.491 18.2598 112.975 18.1006L106.167 17.384L106.075 18.252L112.983 18.9792C114.5 19.1384 115.064 19.2408 115.764 19.6761C116.443 20.0928 116.928 20.9081 117.051 21.8585ZM120.167 10.4753L120.167 10.4675C120.305 9.16131 119.751 7.95246 118.87 7.41292C118.171 6.97695 117.606 6.87525 116.09 6.71606L104.4 5.48558C103.305 5.36967 101.936 5.22592 100.795 6.14922C99.6543 7.07251 99.5099 8.44183 99.3946 9.53702L97.1909 30.4733C97.1357 31 97.0739 31.59 97.1267 32.1872C97.142 31.8976 97.1718 31.617 97.1997 31.3519L99.4034 10.4157C99.5186 9.32049 99.663 7.95182 100.804 7.02788C101.945 6.10458 103.314 6.24833 104.409 6.36424L116.099 7.59472C117.615 7.75456 118.179 7.85626 118.879 8.29158C119.558 8.70824 120.044 9.5236 120.167 10.4753ZM124.819 23.4657C124.091 26.4188 123.481 28.9557 123.59 31.3138C123.641 29.2039 124.189 26.9342 124.828 24.3443C126.045 19.409 127.015 15.656 130.732 13.4107C133.346 11.8307 136.108 11.3342 139.604 12.1963C143.182 13.0784 145.03 14.167 146.439 16.2376C147.505 17.805 147.922 19.2793 148.012 20.4784C148.087 19.1638 147.774 17.3359 146.43 15.359C145.021 13.2884 143.174 12.1997 139.595 11.3177C136.1 10.4556 133.338 10.9521 130.723 12.5321C127.006 14.778 126.036 18.531 124.819 23.4663L124.819 23.4657ZM144.439 35.1399C144.524 34.2752 144.347 33.5993 143.963 32.9644C143.467 32.1439 142.669 31.5762 141.724 31.343C140.922 31.1455 140.233 31.194 139.653 31.4216C138.74 31.7637 138.033 32.4179 137.148 33.3556C135.965 34.613 134.964 34.9547 133.669 34.6352C132.435 34.3308 131.755 33.5525 131.393 32.7216C131.22 32.32 131.104 31.9166 131.059 31.4143C131.007 32.3755 131.138 32.9908 131.402 33.6002C131.764 34.4311 132.444 35.2094 133.678 35.5139C134.973 35.8333 135.974 35.491 137.156 34.2343C138.042 33.2966 138.748 32.6417 139.662 32.2996C140.242 32.072 140.93 32.0235 141.732 32.221C142.678 32.4542 143.476 33.0219 143.972 33.8424C144.216 34.2458 144.376 34.665 144.439 35.1392L144.439 35.1399ZM176.186 32.816C176.227 31.6962 176.075 30.5666 175.667 29.3875C174.67 26.4997 172.865 24.3498 169.551 22.7379C166.238 21.1253 163.433 21.0323 160.546 22.0303C156.44 23.4482 154.706 26.9148 152.482 31.4855C150.731 35.0856 149.331 38.0233 149.508 41.115C149.61 38.3373 150.906 35.6218 152.491 32.3648C154.715 27.7941 156.449 24.3275 160.554 22.9096C163.441 21.9123 166.246 22.0046 169.56 23.6172C172.874 25.2298 174.678 27.379 175.676 30.2668C175.976 31.1386 176.138 31.9832 176.186 32.8166L176.186 32.816ZM162.284 44.4499C161.474 44.8567 160.244 44.9646 159.025 44.3718C157.806 43.7784 157.132 42.7438 156.952 41.8558C156.932 41.7571 156.915 41.6591 156.9 41.5577C156.846 42.0331 156.889 42.382 156.961 42.7344C157.141 43.6224 157.814 44.6577 159.034 45.2505C160.253 45.8432 161.483 45.7353 162.293 45.3285C163.291 44.8249 164.099 44.1345 166.508 39.1828C168.708 34.6598 168.952 33.3513 168.81 32.3224C168.696 33.3369 168.145 34.9217 166.499 38.3035C164.09 43.2552 163.283 43.9456 162.284 44.4492L162.284 44.4499Z" fill="#9D9E9E"/>
<path fill-rule="evenodd" clip-rule="evenodd" d="M14.6096 51.7331C15.3688 53.2475 15.6537 53.7683 16.4493 54.3646C17.3975 55.0739 18.8564 55.1959 20.1812 54.5316C21.5074 53.8673 22.2827 52.6257 22.2813 51.4419C22.281 51.2897 22.2751 51.1486 22.2627 51.0128C22.1611 52.1163 21.4047 53.2296 20.1744 53.8461C18.8496 54.5098 17.3907 54.3884 16.4424 53.6791C15.6469 53.0828 15.362 52.5627 14.6028 51.0476L5.41721 32.7193C4.77348 31.4359 4.49838 30.8526 4.42908 30.0994C4.42148 30.1854 4.41713 30.2706 4.41733 30.3565C4.41814 31.351 4.66484 31.8904 5.42405 33.4055L14.6096 51.7337L14.6096 51.7331ZM18.3457 41.8767L18.6634 41.7175L30.4699 46.8403C32.2613 47.6251 33.2839 47.9655 34.5719 47.3198C35.3291 46.9402 35.8498 46.3242 36.1899 45.5377C36.4614 44.9047 36.5799 44.2687 36.5042 43.6554C36.4652 44.0513 36.3547 44.4524 36.1831 44.8522C35.843 45.6387 35.3229 46.2546 34.565 46.6343C33.2777 47.28 32.2544 46.9396 30.4631 46.1548L18.6566 41.032L18.0696 41.326L18.3457 41.8767ZM22.4493 35.0972L25.0133 25.5056C25.3186 24.3572 25.4373 23.6093 25.3672 22.9693C25.3299 23.4659 25.2096 24.0538 25.0065 24.8201L22.2788 35.0235L22.4493 35.0972ZM41.1833 83.2876C43.7498 81.7777 44.7102 79.3342 44.5904 76.5794C44.5311 79.0511 43.5276 81.2186 41.1764 82.6015L40.7244 82.8674C39.5611 83.5523 39.1054 83.7767 38.3788 83.834C37.4683 83.9133 36.4376 83.3447 35.8487 82.343C35.6158 81.9473 35.475 81.524 35.4227 81.1095C35.3534 81.7223 35.491 82.409 35.8555 83.0285C36.4444 84.0302 37.4752 84.5988 38.3857 84.5195C39.1129 84.4615 39.5679 84.2371 40.7313 83.5529L41.1833 83.287L41.1833 83.2876ZM35.1849 57.0007C35.1385 57.502 35.2216 58.0703 35.3967 59.0709L36.885 67.2951L37.0227 67.4076L35.3906 58.3854C35.2885 57.801 35.2178 57.3633 35.1855 57.0007L35.1849 57.0007ZM24.0529 63.7559C23.8838 65.1886 24.8314 66.0286 26.0753 67.0342L38.4344 76.955C38.495 76.7684 38.5216 76.5632 38.5142 76.3389L26.0685 66.3487C25.037 65.514 24.209 64.7944 24.0529 63.7559ZM49.8365 51.4363C49.7686 52.1967 49.9807 52.916 50.1241 53.403L50.1981 53.6547C51.5507 58.2443 52.4088 63.2208 52.4937 67.5642C52.4924 63.0638 51.6158 57.802 50.1913 52.9685L50.1172 52.7169C50.0183 52.3796 49.8857 51.9322 49.8365 51.4357L49.8365 51.4363ZM50.6351 72.8773C50.5685 73.5011 50.6981 74.0469 51.0643 75.2875L51.9335 78.2364C52.3468 79.6385 52.5313 80.1317 53.0454 80.684C53.7083 81.4071 54.8723 81.7091 56.0585 81.359C57.2453 81.0089 58.0593 80.1247 58.224 79.1571C58.2819 78.8333 58.2927 78.5528 58.253 78.2234C58.2441 78.3042 58.2319 78.3863 58.2171 78.471C58.0525 79.4379 57.2385 80.3228 56.0517 80.6728C54.8648 81.0223 53.7014 80.721 53.0386 79.9978C52.5244 79.4455 52.34 78.953 51.9266 77.5502L51.0575 74.6013C50.8246 73.8108 50.6868 73.3029 50.6351 72.8767L50.6351 72.8773ZM57.6191 75.1148L70.1695 71.4148L70.562 72.7456C70.9753 74.1477 71.1591 74.6409 71.6739 75.1925C72.3368 75.9157 73.5008 76.217 74.687 75.8675C75.8738 75.5175 76.6878 74.6326 76.8525 73.6657C76.9104 73.3418 76.9213 73.0614 76.8815 72.732C76.8726 72.8127 76.8604 72.8948 76.8456 72.9795C76.6816 73.9464 75.867 74.8313 74.6802 75.1814C73.4933 75.5308 72.3299 75.2296 71.6671 74.5064C71.1523 73.9541 70.9685 73.4616 70.5551 72.0594L70.1627 70.7287L57.4326 74.4812L57.6191 75.1141L57.6191 75.1148ZM58.8409 67.9692C58.88 67.0667 58.8976 66.1578 58.8798 65.224C58.8807 66.1573 58.8495 67.0696 58.7994 67.9813L58.8409 67.9692ZM57.0476 53.5512L60.8953 52.4175L64.9494 66.169L65.1291 66.1165L60.8891 51.732L56.8617 52.9189L57.0482 53.5512L57.0476 53.5512ZM77.7138 66.5094C77.6355 67.3265 77.8295 68.0595 78.5812 68.7604C79.1826 69.3209 80.0767 69.6834 80.9759 69.651C81.7067 69.6255 82.3539 69.3589 82.8073 68.9114C83.3511 68.3856 83.5768 67.8715 84.0166 66.5057L84.3718 65.4049L93.7388 65.0747L94.1703 66.1475C94.7052 67.4788 94.9665 67.9764 95.5463 68.4624C96.0298 68.8764 96.6942 69.0975 97.425 69.0713C98.3242 69.0396 99.1909 68.6147 99.7508 68.0139C100.41 67.3068 100.575 66.6066 100.479 65.853C100.419 66.3545 100.199 66.8399 99.744 67.3278C99.1834 67.9285 98.3174 68.3534 97.4182 68.3852C96.688 68.4113 96.023 68.1903 95.5395 67.7762C94.9596 67.2903 94.6984 66.7927 94.1634 65.4614L93.7319 64.3885L84.365 64.7187L84.0097 65.8196C83.57 67.1853 83.3449 67.6995 82.8005 68.2252C82.347 68.6727 81.6999 68.9394 80.9691 68.9649C80.0698 68.9966 79.1758 68.6341 78.5744 68.0742C78.0386 67.5748 77.7863 67.0596 77.7138 66.5087L77.7138 66.5094ZM86.3897 59.1704L88.6009 52.3506L91.2865 58.998L91.5531 58.9888L88.594 51.6651L86.1576 59.1786L86.3897 59.1704ZM115.201 69.1913C115.165 69.6073 115.195 69.9484 115.302 70.3728C115.558 71.3888 116.493 72.2862 117.774 72.5681C119.056 72.8506 120.281 72.4292 120.941 71.6148C121.495 70.9309 121.626 70.4222 121.949 68.9581L125.853 51.2369C126.109 50.074 126.221 49.5089 126.15 48.8982C126.113 49.3188 126.008 49.8148 125.846 50.5514L121.942 68.2726C121.62 69.7367 121.488 70.2454 120.934 70.9293C120.275 71.7437 119.049 72.1651 117.768 71.8826C116.486 71.6007 115.552 70.7033 115.295 69.6873C115.251 69.5114 115.22 69.3504 115.201 69.1913ZM111.924 53.8989C111.937 53.7869 111.956 53.6722 111.982 53.5555L113.111 48.4299C113.368 47.2676 113.48 46.7025 113.408 46.0918C113.371 46.5117 113.267 47.0084 113.105 47.7437L111.975 52.8694C111.894 53.2403 111.877 53.5852 111.924 53.8989ZM104.985 55.1253C104.836 58.5097 107.372 60.986 110.592 61.6954C112.7 62.1596 114.375 62.3465 116.469 62.442L116.619 61.7634C114.451 61.6699 112.745 61.4859 110.585 61.0099C107.587 60.3497 105.181 58.157 104.985 55.1253ZM146.891 80.0478L155.16 63.4968C155.648 62.5209 156 61.6314 155.876 60.7487C155.803 61.4103 155.516 62.087 155.154 62.8113L146.884 79.3623C146.214 80.7037 145.963 81.1654 145.259 81.6935C144.421 82.3223 143.129 82.4315 141.956 81.8448C140.902 81.318 140.241 80.3802 140.115 79.435C140.105 79.5503 140.101 79.6694 140.101 79.7981C140.101 80.846 140.789 81.9442 141.963 82.5303C143.137 83.117 144.428 83.0078 145.266 82.379C145.969 81.8503 146.221 81.3892 146.891 80.0478ZM138.259 65.2824L142.19 57.4145C142.86 56.0731 143.078 55.5948 143.077 54.7148C143.078 54.6081 143.07 54.5002 143.056 54.393C142.998 55.0674 142.755 55.5831 142.183 56.7283L137.759 65.5827L138.259 65.2824ZM127.296 73.0787C127.253 73.4589 127.282 73.8346 127.407 74.2106C127.667 74.9899 128.195 75.6526 129.067 76.0881C130.476 76.7922 131.717 76.4897 133.938 75.1478L144.913 68.5456L145.405 67.5592L133.931 74.4617C131.71 75.8036 130.469 76.106 129.06 75.402C128.188 74.9664 127.66 74.3044 127.399 73.5245C127.35 73.3754 127.315 73.2268 127.295 73.078L127.296 73.0787ZM58.0548 36.1711C58.9978 34.468 59.3114 32.7776 59.2448 30.9902C59.2146 32.5275 58.8702 34.0016 58.0479 35.485C56.5675 38.1575 54.4196 39.9637 50.8776 40.9799C47.3357 41.9967 44.557 41.6043 41.8845 40.1238C38.0851 38.0192 36.9755 34.3058 35.5732 29.42C34.7997 26.7265 34.1408 24.3817 34.0577 22.1834C34.0107 24.5801 34.7263 27.1298 35.5801 30.1055C36.9824 34.9913 38.0926 38.7047 41.8914 40.8093C44.5639 42.2898 47.3425 42.6822 50.8845 41.6654C54.427 40.6485 56.5743 38.843 58.0548 36.1705L58.0548 36.1711ZM41.4999 21.7742C41.5276 21.2932 41.629 20.954 41.759 20.6203C42.0901 19.776 42.944 18.9141 44.247 18.5401C45.5493 18.1661 46.7314 18.4444 47.4587 18.9842C48.3558 19.6523 49.0435 20.5125 50.5624 25.8056C51.3865 28.6769 51.7227 30.3003 51.793 31.3507C51.8526 30.3413 51.5838 28.7016 50.5555 25.1195C49.036 19.8264 48.349 18.9662 47.4519 18.298C46.7239 17.7583 45.5425 17.48 44.2401 17.854C42.9371 18.2279 42.0832 19.0898 41.7521 19.9342C41.5682 20.4076 41.441 20.8915 41.4999 21.7735L41.4999 21.7742ZM82.8087 30.83C82.9543 32.5177 83.0265 33.107 83.5462 33.9552C84.1651 34.9643 85.4751 35.6167 86.9523 35.4894C88.4295 35.3615 89.6092 34.4951 90.0457 33.3947C90.3084 32.7325 90.3672 32.2415 90.3263 31.3957C90.3063 31.8694 90.2222 32.2475 90.0389 32.7092C89.6023 33.8096 88.4226 34.6767 86.9454 34.8039C85.4683 34.9312 84.1583 34.2788 83.5394 33.2697C83.0197 32.4215 82.9475 31.8322 82.8018 30.1445L81.1913 11.4916L75.9585 11.9432L76.0173 12.6242L81.1982 12.1771L82.8087 30.83ZM68.5991 9.82912C68.5798 10.3061 68.6202 10.7721 68.6564 11.1977L69.4638 20.5456C69.5601 21.6615 69.6515 22.8001 69.6773 23.8881C69.6833 22.5975 69.5738 21.2125 69.4569 19.8595L68.6495 10.5116C68.6311 10.2932 68.6112 10.0645 68.5991 9.82847L68.5991 9.82912ZM63.3117 33.3764C63.2949 33.5835 63.2951 33.7948 63.3135 34.008C63.4268 35.3234 64.202 36.4259 65.1689 36.7883C65.9388 37.0831 66.5117 37.0768 68.3262 36.9195C74.1218 36.4194 77.0282 33.7639 76.8602 24.4181C76.875 33.2093 73.9707 35.7457 68.3194 36.234C66.5049 36.3906 65.9313 36.3976 65.1621 36.1029C64.2082 35.7449 63.4417 34.6676 63.3117 33.3764ZM112.933 36.7087C114.45 36.8686 115.024 36.8863 115.798 36.6054C116.772 36.2607 117.566 35.1945 117.703 33.8883C117.73 33.6233 117.73 33.3632 117.704 33.111L117.696 33.2022C117.559 34.5083 116.765 35.5745 115.791 35.9192C115.017 36.1995 114.444 36.1824 112.926 36.0226L101.237 34.7921C100.142 34.6768 98.773 34.5324 97.8497 33.3923C97.3479 32.7723 97.1615 32.0859 97.1138 31.4119C97.077 32.2923 97.1828 33.2455 97.8565 34.0778C98.7798 35.2186 100.148 35.363 101.244 35.4776L112.933 36.7081L112.933 36.7087ZM104.892 28.5329L105.375 23.9444L112.284 24.6716C113.8 24.8315 114.373 24.8492 115.148 24.5683C116.121 24.2236 116.915 23.1574 117.053 21.8512C117.081 21.5869 117.08 21.3261 117.054 21.0746L117.046 21.1658C116.909 22.4719 116.115 23.5381 115.141 23.8828C114.367 24.163 113.793 24.146 112.277 23.9861L105.369 23.2589L104.814 28.5246L104.892 28.5329ZM106.138 16.6961L106.595 12.3602L115.398 13.2871C116.915 13.4463 117.488 13.464 118.263 13.1838C119.236 12.8391 120.029 11.7729 120.167 10.4674C120.195 10.203 120.195 9.94286 120.169 9.69139L120.16 9.78124C120.023 11.0867 119.229 12.1529 118.256 12.4976C117.481 12.7785 116.908 12.7608 115.392 12.601L106.588 11.6741L106.06 16.6871L106.138 16.6954L106.138 16.6961ZM123.58 30.532C123.547 32.4056 123.913 34.1542 124.962 35.8908C126.542 38.5055 128.756 40.2298 132.252 41.0919C135.829 41.9747 137.971 41.87 140.182 40.6922C142.895 39.2452 143.982 37.2232 144.297 35.9484C144.447 35.3401 144.49 34.8199 144.441 34.3534C144.42 34.6346 144.37 34.9363 144.29 35.2629C143.975 36.5377 142.888 38.5597 140.175 40.0067C137.965 41.1845 135.822 41.2892 132.245 40.4064C128.749 39.5443 126.535 37.82 124.955 35.2053C124.035 33.6821 123.641 32.1497 123.58 30.532ZM131.046 30.6409C131.093 29.5191 131.401 27.9186 132.058 25.251C133.246 20.4396 133.827 19.2305 134.944 18.3282C135.652 17.7605 136.616 17.3879 137.849 17.6924C139.145 18.0119 139.872 18.7799 140.334 20.4431C140.682 21.6852 141.003 22.5932 141.653 23.3205C142.061 23.7919 142.648 24.1548 143.449 24.3524C144.395 24.5855 145.365 24.4542 146.186 23.9582C147.007 23.4622 147.554 22.7471 147.868 21.4717C147.983 21.0048 148.053 20.4012 148.01 19.6991C147.993 20.113 147.937 20.4797 147.861 20.7862C147.547 22.061 147 22.7767 146.179 23.2727C145.359 23.7681 144.388 23.9 143.442 23.6669C142.64 23.4687 142.054 23.1064 141.647 22.635C140.997 21.9077 140.676 20.9997 140.327 19.7576C139.865 18.0944 139.138 17.3264 137.843 17.0069C136.609 16.7024 135.645 17.0757 134.937 17.6427C133.821 18.545 133.239 19.7541 132.052 24.5655C131.247 27.8284 130.966 29.4957 131.046 30.6416L131.046 30.6409ZM165.141 51.022C169.246 49.6041 170.98 46.1375 173.204 41.5668C174.938 38.0033 176.327 35.0884 176.184 32.0322C176.11 34.8447 174.801 37.5851 173.197 40.8813C170.974 45.4513 169.24 48.9186 165.134 50.3365C162.247 51.3338 159.442 51.2408 156.128 49.6282C152.815 48.0163 151.01 45.8664 150.013 42.9786C149.701 42.0744 149.537 41.1986 149.497 40.3352C149.469 41.4223 149.625 42.52 150.02 43.6648C151.017 46.5525 152.822 48.7018 156.135 50.3144C159.449 51.9269 162.254 52.02 165.141 51.0226L165.141 51.022ZM156.883 40.778C156.971 39.778 157.498 38.2195 159.187 34.7462C161.596 29.7944 162.421 29.0662 163.421 28.5625C164.231 28.1557 165.443 28.0857 166.662 28.6791C167.881 29.2725 168.574 30.2686 168.753 31.1573C168.779 31.2825 168.8 31.4079 168.814 31.5385C168.851 31.1173 168.812 30.7937 168.747 30.4711C168.567 29.5825 167.874 28.5864 166.655 27.993C165.436 27.4002 164.225 27.4696 163.414 27.8764C162.415 28.38 161.589 29.1083 159.18 34.0601C157.054 38.4288 156.769 39.7696 156.883 40.7773L156.883 40.778Z" fill="#EBECEC"/>
</svg>
